<svg width="411" height="878" viewBox="0 0 411 878" fill="none" xmlns="http://www.w3.org/2000/svg">
<rect width="411" height="878" fill="#F5F5F5"/>
<g filter="url(#filter0_d_100_41)">
<path d="M6 157C6 129.938 27.938 108 55 108H356C383.062 108 405 129.938 405 157V157C405 184.062 383.062 206 356 206H55C27.938 206 6 184.062 6 157V157Z" fill="#FFA29A"/>
</g>
<g filter="url(#filter1_d_100_41)">
<path d="M7 608C7 580.938 28.938 559 56 559H357C384.062 559 406 580.938 406 608V608C406 635.062 384.062 657 357 657H56C28.938 657 7 635.062 7 608V608Z" fill="#9ACBD0"/>
</g>
<g filter="url(#filter2_d_100_41)">
<path d="M5 271.5C5 244.714 26.7142 223 53.5 223H355.5C382.286 223 404 244.714 404 271.5V271.5C404 298.286 382.286 320 355.5 320H53.5C26.7142 320 5 298.286 5 271.5V271.5Z" fill="#FFC8C3"/>
</g>
<g filter="url(#filter3_d_100_41)">
<path d="M7 719C7 691.938 28.938 670 56 670H358C385.062 670 407 691.938 407 719V719C407 746.062 385.062 768 358 768H56C28.938 768 7 746.062 7 719V719Z" fill="#47BFC0"/>
<path d="M56 671H358C384.51 671 406 692.49 406 719C406 745.51 384.51 767 358 767H56C29.4903 767 8 745.51 8 719C8 692.49 29.4903 671 56 671Z" stroke="#F2EFE7" stroke-width="2"/>
</g>
<g filter="url(#filter4_d_100_41)">
<path d="M4 48.5C4 21.7142 25.7142 0 52.5 0H355.5C382.286 0 404 21.7142 404 48.5V48.5C404 75.2858 382.286 97 355.5 97H52.5C25.7142 97 4 75.2858 4 48.5V48.5Z" fill="#FF6F61"/>
</g>
<path d="M5 382.5C5 355.714 26.7142 334 53.5 334H356.5C383.286 334 405 355.714 405 382.5V382.5C405 409.286 383.286 431 356.5 431H53.5C26.7142 431 5 409.286 5 382.5V382.5Z" fill="#F2EFE7"/>
<path d="M5 497.5C5 470.714 26.7142 449 53.5 449H356.5C383.286 449 405 470.714 405 497.5V497.5C405 524.286 383.286 546 356.5 546H53.5C26.7142 546 5 524.286 5 497.5V497.5Z" fill="#C3E8EA"/>
<path d="M7 829.5C7 802.714 28.7142 781 55.5 781H358.5C385.286 781 407 802.714 407 829.5V829.5C407 856.286 385.286 878 358.5 878H55.5C28.7142 878 7 856.286 7 829.5V829.5Z" fill="#006A71"/>
<defs>
<filter id="filter0_d_100_41" x="2" y="108" width="407" height="106" filterUnits="userSpaceOnUse" color-interpolation-filters="sRGB">
<feFlood flood-opacity="0" result="BackgroundImageFix"/>
<feColorMatrix in="SourceAlpha" type="matrix" values="0 0 0 0 0 0 0 0 0 0 0 0 0 0 0 0 0 0 127 0" result="hardAlpha"/>
<feOffset dy="4"/>
<feGaussianBlur stdDeviation="2"/>
<feComposite in2="hardAlpha" operator="out"/>
<feColorMatrix type="matrix" values="0 0 0 0 0 0 0 0 0 0 0 0 0 0 0 0 0 0 0.25 0"/>
<feBlend mode="normal" in2="BackgroundImageFix" result="effect1_dropShadow_100_41"/>
<feBlend mode="normal" in="SourceGraphic" in2="effect1_dropShadow_100_41" result="shape"/>
</filter>
<filter id="filter1_d_100_41" x="3" y="559" width="407" height="106" filterUnits="userSpaceOnUse" color-interpolation-filters="sRGB">
<feFlood flood-opacity="0" result="BackgroundImageFix"/>
<feColorMatrix in="SourceAlpha" type="matrix" values="0 0 0 0 0 0 0 0 0 0 0 0 0 0 0 0 0 0 127 0" result="hardAlpha"/>
<feOffset dy="4"/>
<feGaussianBlur stdDeviation="2"/>
<feComposite in2="hardAlpha" operator="out"/>
<feColorMatrix type="matrix" values="0 0 0 0 0 0 0 0 0 0 0 0 0 0 0 0 0 0 0.25 0"/>
<feBlend mode="normal" in2="BackgroundImageFix" result="effect1_dropShadow_100_41"/>
<feBlend mode="normal" in="SourceGraphic" in2="effect1_dropShadow_100_41" result="shape"/>
</filter>
<filter id="filter2_d_100_41" x="1" y="223" width="407" height="105" filterUnits="userSpaceOnUse" color-interpolation-filters="sRGB">
<feFlood flood-opacity="0" result="BackgroundImageFix"/>
<feColorMatrix in="SourceAlpha" type="matrix" values="0 0 0 0 0 0 0 0 0 0 0 0 0 0 0 0 0 0 127 0" result="hardAlpha"/>
<feOffset dy="4"/>
<feGaussianBlur stdDeviation="2"/>
<feComposite in2="hardAlpha" operator="out"/>
<feColorMatrix type="matrix" values="0 0 0 0 0 0 0 0 0 0 0 0 0 0 0 0 0 0 0.25 0"/>
<feBlend mode="normal" in2="BackgroundImageFix" result="effect1_dropShadow_100_41"/>
<feBlend mode="normal" in="SourceGraphic" in2="effect1_dropShadow_100_41" result="shape"/>
</filter>
<filter id="filter3_d_100_41" x="3" y="670" width="408" height="106" filterUnits="userSpaceOnUse" color-interpolation-filters="sRGB">
<feFlood flood-opacity="0" result="BackgroundImageFix"/>
<feColorMatrix in="SourceAlpha" type="matrix" values="0 0 0 0 0 0 0 0 0 0 0 0 0 0 0 0 0 0 127 0" result="hardAlpha"/>
<feOffset dy="4"/>
<feGaussianBlur stdDeviation="2"/>
<feComposite in2="hardAlpha" operator="out"/>
<feColorMatrix type="matrix" values="0 0 0 0 0 0 0 0 0 0 0 0 0 0 0 0 0 0 0.25 0"/>
<feBlend mode="normal" in2="BackgroundImageFix" result="effect1_dropShadow_100_41"/>
<feBlend mode="normal" in="SourceGraphic" in2="effect1_dropShadow_100_41" result="shape"/>
</filter>
<filter id="filter4_d_100_41" x="0" y="0" width="408" height="105" filterUnits="userSpaceOnUse" color-interpolation-filters="sRGB">
<feFlood flood-opacity="0" result="BackgroundImageFix"/>
<feColorMatrix in="SourceAlpha" type="matrix" values="0 0 0 0 0 0 0 0 0 0 0 0 0 0 0 0 0 0 127 0" result="hardAlpha"/>
<feOffset dy="4"/>
<feGaussianBlur stdDeviation="2"/>
<feComposite in2="hardAlpha" operator="out"/>
<feColorMatrix type="matrix" values="0 0 0 0 0 0 0 0 0 0 0 0 0 0 0 0 0 0 0.25 0"/>
<feBlend mode="normal" in2="BackgroundImageFix" result="effect1_dropShadow_100_41"/>
<feBlend mode="normal" in="SourceGraphic" in2="effect1_dropShadow_100_41" result="shape"/>
</filter>
</defs>
</svg>
