<svg width="475" height="406" viewBox="0 0 475 406" fill="none" xmlns="http://www.w3.org/2000/svg">
<g clip-path="url(#clip0_452_30)">
<g filter="url(#filter0_d_452_30)">
<path d="M52 121C52 76.8172 87.8172 41 132 41H343C387.183 41 423 76.8172 423 121V326C423 370.183 387.183 406 343 406H132C87.8172 406 52 370.183 52 326V121Z" fill="#FF6F61"/>
<path d="M132 43.5H343C385.802 43.5 420.5 78.1979 420.5 121V326C420.5 368.802 385.802 403.5 343 403.5H132C89.1979 403.5 54.5 368.802 54.5 326V121C54.5 78.1979 89.1979 43.5 132 43.5Z" stroke="#47BFC0" stroke-width="5"/>
</g>
<path d="M276.667 175.417V212.25M198.333 175.417V212.25M149.375 249.083H325.625M168.958 193.833H306.042C316.857 193.833 325.625 202.079 325.625 212.25V341.167C325.625 351.338 316.857 359.583 306.042 359.583H168.958C158.143 359.583 149.375 351.338 149.375 341.167V212.25C149.375 202.079 158.143 193.833 168.958 193.833Z" stroke="white" stroke-width="4" stroke-linecap="round" stroke-linejoin="round"/>
<path d="M219.643 327.56C215.909 327.56 212.689 326.743 209.983 325.11C207.323 323.43 205.293 320.747 203.893 317.06C202.493 313.373 201.793 308.497 201.793 302.43C201.793 296.317 202.493 291.417 203.893 287.73C205.293 284.043 207.323 281.383 209.983 279.75C212.643 278.07 215.863 277.23 219.643 277.23C223.469 277.23 226.689 278.07 229.303 279.75C231.963 281.383 233.993 284.043 235.393 287.73C236.793 291.417 237.493 296.317 237.493 302.43C237.493 308.497 236.793 313.373 235.393 317.06C233.993 320.747 231.963 323.43 229.303 325.11C226.643 326.743 223.423 327.56 219.643 327.56ZM219.643 318.32C221.369 318.32 222.769 317.9 223.843 317.06C224.916 316.22 225.709 314.657 226.223 312.37C226.736 310.037 226.993 306.723 226.993 302.43C226.993 298.09 226.736 294.777 226.223 292.49C225.709 290.203 224.916 288.64 223.843 287.8C222.769 286.913 221.369 286.47 219.643 286.47C217.963 286.47 216.563 286.913 215.443 287.8C214.369 288.64 213.576 290.203 213.063 292.49C212.549 294.777 212.293 298.09 212.293 302.43C212.293 306.723 212.549 310.037 213.063 312.37C213.576 314.657 214.369 316.22 215.443 317.06C216.563 317.9 217.963 318.32 219.643 318.32ZM251.844 327.56C250.724 327.56 249.627 327.327 248.554 326.86C247.527 326.347 246.78 325.577 246.314 324.55C245.847 323.477 245.964 322.1 246.664 320.42L259.264 290.46C259.497 289.947 259.8 289.247 260.174 288.36C260.547 287.427 260.874 286.61 261.154 285.91C261.48 285.163 261.644 284.79 261.644 284.79C260.43 286.237 258.937 286.96 257.164 286.96H243.794C242.067 286.96 240.737 286.54 239.804 285.7C238.87 284.86 238.404 283.647 238.404 282.06C238.404 278.84 240.2 277.23 243.794 277.23H268.364C270.417 277.23 271.934 277.767 272.914 278.84C273.894 279.867 274.057 281.15 273.404 282.69L256.884 322.1C256.65 322.66 256.347 323.383 255.974 324.27C255.647 325.11 255.157 325.88 254.504 326.58C253.85 327.233 252.964 327.56 251.844 327.56Z" fill="white"/>
<path d="M211.873 241C209.953 241 208.993 239.96 208.993 237.88V215.68C208.993 213.6 209.953 212.56 211.873 212.56C213.793 212.56 214.753 213.6 214.753 215.68V233.44C214.753 233.867 214.713 234.413 214.633 235.08C214.58 235.72 214.513 236.253 214.433 236.68C215.127 235.853 215.98 235.44 216.993 235.44H222.873C223.86 235.44 224.62 235.68 225.153 236.16C225.687 236.64 225.953 237.333 225.953 238.24C225.953 240.08 224.927 241 222.873 241H211.873ZM235.557 241.32C233.797 241.32 232.251 240.96 230.917 240.24C229.584 239.52 228.544 238.507 227.797 237.2C227.077 235.893 226.717 234.373 226.717 232.64V223.28C226.717 221.467 227.677 220.56 229.597 220.56C231.517 220.56 232.477 221.467 232.477 223.28V232.56C232.477 233.813 232.744 234.787 233.277 235.48C233.811 236.173 234.571 236.52 235.557 236.52C236.544 236.52 237.304 236.173 237.837 235.48C238.371 234.787 238.637 233.813 238.637 232.56V223.28C238.637 221.467 239.597 220.56 241.517 220.56C243.437 220.56 244.397 221.467 244.397 223.28V232.64C244.397 234.373 244.024 235.893 243.277 237.2C242.557 238.507 241.531 239.52 240.197 240.24C238.891 240.96 237.344 241.32 235.557 241.32ZM251.394 241.32C249.474 241.32 248.514 240.413 248.514 238.6V229C248.514 226.44 249.328 224.413 250.954 222.92C252.608 221.427 254.781 220.68 257.474 220.68C260.168 220.68 262.328 221.427 263.954 222.92C265.608 224.413 266.434 226.44 266.434 229V238.6C266.434 240.413 265.474 241.32 263.554 241.32C261.634 241.32 260.674 240.413 260.674 238.6V229.32C260.674 228.067 260.394 227.12 259.834 226.48C259.274 225.813 258.488 225.48 257.474 225.48C256.461 225.48 255.674 225.813 255.114 226.48C254.554 227.12 254.274 228.067 254.274 229.32V238.6C254.274 240.413 253.314 241.32 251.394 241.32Z" fill="white"/>
<path d="M129.709 24.587C139.086 39.2706 129.566 62.1074 108.445 75.5943C87.3252 89.0813 62.6026 88.1113 53.2259 73.4277C43.8492 58.7441 53.3693 35.9073 74.4895 22.4203C95.6097 8.93331 120.332 9.90336 129.709 24.587Z" fill="white"/>
<path d="M68.5631 59.5212C71.9589 59.6579 74.2895 63.4098 72.9012 66.5049L55.711 104.83C54.2307 108.13 49.69 108.207 47.6765 104.965L22.8184 64.9477C20.805 61.7063 22.894 57.683 26.5148 57.8287L68.5631 59.5212Z" fill="white"/>
<path d="M161.343 88.855C161.343 91.6317 161.681 93.6267 162.358 94.84C163.034 96.03 164.038 96.625 165.368 96.625C166.208 96.625 166.943 96.5667 167.573 96.45C168.203 96.31 168.774 96.24 169.288 96.24C170.221 96.24 170.898 96.4383 171.318 96.835C171.738 97.2083 171.948 97.6983 171.948 98.305C171.948 99.0983 171.656 99.705 171.073 100.125C170.513 100.545 169.789 100.837 168.903 101C168.039 101.163 167.153 101.245 166.243 101.245C163.723 101.245 161.716 100.778 160.223 99.845C158.753 98.9117 157.691 97.535 157.038 95.715C156.408 93.8717 156.093 91.585 156.093 88.855C156.093 86.125 156.408 83.815 157.038 81.925C157.691 80.0117 158.753 78.565 160.223 77.585C161.716 76.605 163.723 76.115 166.243 76.115C167.153 76.115 168.039 76.1967 168.903 76.36C169.789 76.5233 170.513 76.815 171.073 77.235C171.656 77.655 171.948 78.2617 171.948 79.055C171.948 79.6383 171.738 80.1283 171.318 80.525C170.898 80.9217 170.221 81.12 169.288 81.12C168.774 81.12 168.203 81.0617 167.573 80.945C166.943 80.805 166.208 80.735 165.368 80.735C163.734 80.735 162.649 81.4 162.113 82.73C161.599 84.0367 161.343 86.0783 161.343 88.855ZM179.902 101.28C177.569 101.28 175.749 100.743 174.442 99.67C173.136 98.5733 172.482 97.1617 172.482 95.435C172.482 93.405 173.334 91.935 175.037 91.025C176.764 90.115 179.284 89.8 182.597 90.08C182.434 89.0067 182.096 88.2833 181.582 87.91C181.069 87.5133 180.451 87.315 179.727 87.315C179.144 87.315 178.654 87.35 178.257 87.42C177.884 87.4667 177.534 87.525 177.207 87.595C176.881 87.665 176.484 87.7 176.017 87.7C175.387 87.7 174.886 87.595 174.512 87.385C174.139 87.1517 173.952 86.6967 173.952 86.02C173.952 85.0633 174.361 84.3633 175.177 83.92C176.017 83.4533 177.336 83.22 179.132 83.22C181.979 83.22 184.091 84.0367 185.467 85.67C186.844 87.28 187.532 89.4383 187.532 92.145C187.532 95.2717 186.961 97.5817 185.817 99.075C184.697 100.545 182.726 101.28 179.902 101.28ZM177.522 95.435C177.522 96.765 178.421 97.43 180.217 97.43C180.801 97.43 181.256 97.325 181.582 97.115C181.909 96.905 182.142 96.485 182.282 95.855C182.446 95.225 182.562 94.28 182.632 93.02C182.516 93.1367 182.364 93.2183 182.177 93.265C181.991 93.3117 181.804 93.335 181.617 93.335C180.077 93.335 179.004 93.4867 178.397 93.79C177.814 94.07 177.522 94.6183 177.522 95.435ZM195.976 98.935C195.976 100.498 195.159 101.28 193.526 101.28C192.732 101.28 192.102 101.082 191.636 100.685C191.169 100.288 190.936 99.705 190.936 98.935V77.06C190.936 76.22 191.122 75.555 191.496 75.065C191.892 74.575 192.546 74.33 193.456 74.33C194.366 74.33 195.007 74.575 195.381 75.065C195.777 75.555 195.976 76.22 195.976 77.06V98.935ZM208.488 101.28C206.154 101.28 204.323 100.895 202.993 100.125C201.686 99.355 200.753 98.2933 200.193 96.94C199.656 95.5867 199.388 94.035 199.388 92.285C199.388 89.065 200.099 86.755 201.523 85.355C202.946 83.9317 204.859 83.22 207.263 83.22C208.709 83.22 209.993 83.465 211.113 83.955C212.233 84.445 213.108 85.145 213.738 86.055C214.368 86.9417 214.683 88.0267 214.683 89.31C214.683 93.0433 212.023 94.91 206.703 94.91H204.673C204.859 95.6333 205.163 96.205 205.583 96.625C206.026 97.0217 206.796 97.22 207.893 97.22C208.499 97.22 208.989 97.185 209.363 97.115C209.736 97.045 210.086 96.975 210.413 96.905C210.763 96.835 211.159 96.8 211.603 96.8C212.233 96.8 212.734 96.9167 213.108 97.15C213.481 97.36 213.668 97.8033 213.668 98.48C213.668 99.4367 213.248 100.148 212.408 100.615C211.591 101.058 210.284 101.28 208.488 101.28ZM204.428 92.32C204.614 92.0633 204.824 91.9 205.058 91.83C205.291 91.7367 205.653 91.69 206.143 91.69C207.519 91.69 208.464 91.5617 208.978 91.305C209.514 91.025 209.783 90.535 209.783 89.835C209.783 88.9483 209.538 88.2717 209.048 87.805C208.558 87.315 207.939 87.07 207.193 87.07C206.329 87.07 205.653 87.4317 205.163 88.155C204.673 88.8783 204.428 90.2667 204.428 92.32ZM220.249 101.28C218.569 101.28 217.729 100.487 217.729 98.9V90.5C217.729 88.26 218.441 86.4867 219.864 85.18C221.311 83.8733 223.213 83.22 225.569 83.22C227.926 83.22 229.816 83.8733 231.239 85.18C232.686 86.4867 233.409 88.26 233.409 90.5V98.9C233.409 100.487 232.569 101.28 230.889 101.28C229.209 101.28 228.369 100.487 228.369 98.9V90.78C228.369 89.6833 228.124 88.855 227.634 88.295C227.144 87.7117 226.456 87.42 225.569 87.42C224.683 87.42 223.994 87.7117 223.504 88.295C223.014 88.855 222.769 89.6833 222.769 90.78V98.9C222.769 100.487 221.929 101.28 220.249 101.28ZM245.075 101.28C242.509 101.28 240.479 100.463 238.985 98.83C237.515 97.1967 236.78 94.805 236.78 91.655C236.78 89.555 237.084 87.8867 237.69 86.65C238.297 85.4133 239.137 84.5383 240.21 84.025C241.307 83.4883 242.544 83.22 243.92 83.22C245.157 83.22 246.16 83.3717 246.93 83.675C247.7 83.9783 248.307 84.4917 248.75 85.215C248.587 84.725 248.459 84.27 248.365 83.85C248.295 83.4067 248.237 82.8933 248.19 82.31C248.167 81.7267 248.155 80.98 248.155 80.07V77.06C248.155 75.24 248.937 74.33 250.5 74.33C252.204 74.33 253.055 75.24 253.055 77.06V91.865C253.055 95.015 252.355 97.3717 250.955 98.935C249.555 100.498 247.595 101.28 245.075 101.28ZM244.83 97.08C245.81 97.08 246.569 96.73 247.105 96.03C247.665 95.33 247.945 94.0233 247.945 92.11C247.945 90.8267 247.817 89.8583 247.56 89.205C247.327 88.5283 246.977 88.0617 246.51 87.805C246.044 87.5483 245.484 87.42 244.83 87.42C244.177 87.42 243.617 87.5483 243.15 87.805C242.684 88.0617 242.322 88.5283 242.065 89.205C241.832 89.8583 241.715 90.8267 241.715 92.11C241.715 94.0233 241.984 95.33 242.52 96.03C243.08 96.73 243.85 97.08 244.83 97.08ZM263.233 101.28C260.899 101.28 259.079 100.743 257.773 99.67C256.466 98.5733 255.813 97.1617 255.813 95.435C255.813 93.405 256.664 91.935 258.368 91.025C260.094 90.115 262.614 89.8 265.928 90.08C265.764 89.0067 265.426 88.2833 264.913 87.91C264.399 87.5133 263.781 87.315 263.058 87.315C262.474 87.315 261.984 87.35 261.588 87.42C261.214 87.4667 260.864 87.525 260.538 87.595C260.211 87.665 259.814 87.7 259.348 87.7C258.718 87.7 258.216 87.595 257.843 87.385C257.469 87.1517 257.283 86.6967 257.283 86.02C257.283 85.0633 257.691 84.3633 258.508 83.92C259.348 83.4533 260.666 83.22 262.463 83.22C265.309 83.22 267.421 84.0367 268.798 85.67C270.174 87.28 270.863 89.4383 270.863 92.145C270.863 95.2717 270.291 97.5817 269.148 99.075C268.028 100.545 266.056 101.28 263.233 101.28ZM260.853 95.435C260.853 96.765 261.751 97.43 263.548 97.43C264.131 97.43 264.586 97.325 264.913 97.115C265.239 96.905 265.473 96.485 265.613 95.855C265.776 95.225 265.893 94.28 265.963 93.02C265.846 93.1367 265.694 93.2183 265.508 93.265C265.321 93.3117 265.134 93.335 264.948 93.335C263.408 93.335 262.334 93.4867 261.728 93.79C261.144 94.07 260.853 94.6183 260.853 95.435ZM276.748 101.28C275.068 101.28 274.228 100.487 274.228 98.9V85.635C274.228 84.025 275.068 83.22 276.748 83.22C277.588 83.22 278.195 83.4067 278.568 83.78C278.942 84.13 279.128 84.7133 279.128 85.53C279.548 84.76 280.143 84.1883 280.913 83.815C281.707 83.4183 282.628 83.22 283.678 83.22C285.685 83.22 286.688 84.095 286.688 85.845C286.688 86.4983 286.443 86.9883 285.953 87.315C285.463 87.6417 284.658 87.805 283.538 87.805C282.442 87.805 281.578 87.91 280.948 88.12C280.318 88.3067 279.875 88.6683 279.618 89.205C279.385 89.7183 279.268 90.465 279.268 91.445V98.9C279.268 100.487 278.428 101.28 276.748 101.28ZM290.319 80.21C289.456 80.21 288.733 79.93 288.149 79.37C287.566 78.81 287.274 78.1217 287.274 77.305C287.274 76.4417 287.566 75.73 288.149 75.17C288.733 74.61 289.456 74.33 290.319 74.33C291.206 74.33 291.929 74.61 292.489 75.17C293.073 75.73 293.364 76.4417 293.364 77.305C293.364 78.1217 293.073 78.81 292.489 79.37C291.929 79.93 291.206 80.21 290.319 80.21ZM292.839 98.935C292.839 100.498 292.023 101.28 290.389 101.28C289.596 101.28 288.966 101.093 288.499 100.72C288.033 100.323 287.799 99.7283 287.799 98.935V85.6C287.799 84.8533 287.986 84.27 288.359 83.85C288.756 83.43 289.409 83.22 290.319 83.22C291.229 83.22 291.871 83.43 292.244 83.85C292.641 84.27 292.839 84.8533 292.839 85.6V98.935ZM304.269 101.28C301.773 101.28 299.801 100.568 298.354 99.145C296.908 97.7217 296.184 95.4233 296.184 92.25C296.184 89.0533 296.908 86.755 298.354 85.355C299.801 83.9317 301.773 83.22 304.269 83.22C306.766 83.22 308.738 83.9317 310.184 85.355C311.631 86.755 312.354 89.0533 312.354 92.25C312.354 95.4233 311.631 97.7217 310.184 99.145C308.738 100.568 306.766 101.28 304.269 101.28ZM304.269 97.08C304.923 97.08 305.471 96.9517 305.914 96.695C306.358 96.415 306.696 95.925 306.929 95.225C307.186 94.525 307.314 93.5333 307.314 92.25C307.314 90.9667 307.186 89.975 306.929 89.275C306.696 88.575 306.358 88.0967 305.914 87.84C305.471 87.56 304.923 87.42 304.269 87.42C303.639 87.42 303.091 87.56 302.624 87.84C302.181 88.0967 301.831 88.575 301.574 89.275C301.341 89.975 301.224 90.9667 301.224 92.25C301.224 93.5333 301.341 94.525 301.574 95.225C301.831 95.925 302.181 96.415 302.624 96.695C303.091 96.9517 303.639 97.08 304.269 97.08ZM167.681 147C167.237 147 166.864 146.825 166.561 146.475C166.257 146.125 166.106 145.682 166.106 145.145V129.395C166.106 128.625 166.211 127.82 166.421 126.98C166.654 126.14 167.074 125.358 167.681 124.635C168.311 123.888 169.197 123.282 170.341 122.815C171.484 122.348 172.977 122.115 174.821 122.115C177.271 122.115 179.172 122.722 180.526 123.935C181.879 125.148 182.556 126.968 182.556 129.395C182.556 130.375 182.369 131.273 181.996 132.09C181.646 132.907 181.109 133.525 180.386 133.945C181.529 134.458 182.346 135.17 182.836 136.08C183.349 136.99 183.606 138.25 183.606 139.86C183.606 142.193 182.882 143.967 181.436 145.18C180.012 146.393 177.807 147 174.821 147H167.681ZM170.901 133.315C171.204 132.942 171.694 132.65 172.371 132.44C173.071 132.23 173.887 132.125 174.821 132.125C175.917 132.125 176.664 131.927 177.061 131.53C177.481 131.11 177.691 130.398 177.691 129.395C177.691 128.228 177.446 127.4 176.956 126.91C176.489 126.397 175.777 126.14 174.821 126.14C173.467 126.14 172.511 126.385 171.951 126.875C171.414 127.365 171.146 128.205 171.146 129.395C171.146 130.118 171.134 130.702 171.111 131.145C171.111 131.565 171.087 131.938 171.041 132.265C171.017 132.592 170.971 132.942 170.901 133.315ZM171.146 142.94H174.821C176.221 142.94 177.189 142.695 177.726 142.205C178.286 141.715 178.566 140.933 178.566 139.86C178.566 138.343 178.274 137.258 177.691 136.605C177.131 135.952 176.174 135.625 174.821 135.625C173.864 135.625 173.117 135.753 172.581 136.01C172.044 136.243 171.671 136.663 171.461 137.27C171.251 137.877 171.146 138.74 171.146 139.86V142.94ZM189.37 126.21C188.506 126.21 187.783 125.93 187.2 125.37C186.616 124.81 186.325 124.122 186.325 123.305C186.325 122.442 186.616 121.73 187.2 121.17C187.783 120.61 188.506 120.33 189.37 120.33C190.256 120.33 190.98 120.61 191.54 121.17C192.123 121.73 192.415 122.442 192.415 123.305C192.415 124.122 192.123 124.81 191.54 125.37C190.98 125.93 190.256 126.21 189.37 126.21ZM191.89 144.935C191.89 146.498 191.073 147.28 189.44 147.28C188.646 147.28 188.016 147.093 187.55 146.72C187.083 146.323 186.85 145.728 186.85 144.935V131.6C186.85 130.853 187.036 130.27 187.41 129.85C187.806 129.43 188.46 129.22 189.37 129.22C190.28 129.22 190.921 129.43 191.295 129.85C191.691 130.27 191.89 130.853 191.89 131.6V144.935ZM204.335 147.28C202.001 147.28 200.17 146.895 198.84 146.125C197.533 145.355 196.6 144.293 196.04 142.94C195.503 141.587 195.235 140.035 195.235 138.285C195.235 135.065 195.946 132.755 197.37 131.355C198.793 129.932 200.706 129.22 203.11 129.22C204.556 129.22 205.84 129.465 206.96 129.955C208.08 130.445 208.955 131.145 209.585 132.055C210.215 132.942 210.53 134.027 210.53 135.31C210.53 139.043 207.87 140.91 202.55 140.91H200.52C200.706 141.633 201.01 142.205 201.43 142.625C201.873 143.022 202.643 143.22 203.74 143.22C204.346 143.22 204.836 143.185 205.21 143.115C205.583 143.045 205.933 142.975 206.26 142.905C206.61 142.835 207.006 142.8 207.45 142.8C208.08 142.8 208.581 142.917 208.955 143.15C209.328 143.36 209.515 143.803 209.515 144.48C209.515 145.437 209.095 146.148 208.255 146.615C207.438 147.058 206.131 147.28 204.335 147.28ZM200.275 138.32C200.461 138.063 200.671 137.9 200.905 137.83C201.138 137.737 201.5 137.69 201.99 137.69C203.366 137.69 204.311 137.562 204.825 137.305C205.361 137.025 205.63 136.535 205.63 135.835C205.63 134.948 205.385 134.272 204.895 133.805C204.405 133.315 203.786 133.07 203.04 133.07C202.176 133.07 201.5 133.432 201.01 134.155C200.52 134.878 200.275 136.267 200.275 138.32ZM216.096 147.28C214.416 147.28 213.576 146.487 213.576 144.9V136.5C213.576 134.26 214.288 132.487 215.711 131.18C217.158 129.873 219.06 129.22 221.416 129.22C223.773 129.22 225.663 129.873 227.086 131.18C228.533 132.487 229.256 134.26 229.256 136.5V144.9C229.256 146.487 228.416 147.28 226.736 147.28C225.056 147.28 224.216 146.487 224.216 144.9V136.78C224.216 135.683 223.971 134.855 223.481 134.295C222.991 133.712 222.303 133.42 221.416 133.42C220.53 133.42 219.841 133.712 219.351 134.295C218.861 134.855 218.616 135.683 218.616 136.78V144.9C218.616 146.487 217.776 147.28 216.096 147.28ZM241.727 147.28C239.394 147.28 237.562 146.895 236.232 146.125C234.926 145.355 233.992 144.293 233.432 142.94C232.896 141.587 232.627 140.035 232.627 138.285C232.627 135.065 233.339 132.755 234.762 131.355C236.186 129.932 238.099 129.22 240.502 129.22C241.949 129.22 243.232 129.465 244.352 129.955C245.472 130.445 246.347 131.145 246.977 132.055C247.607 132.942 247.922 134.027 247.922 135.31C247.922 139.043 245.262 140.91 239.942 140.91H237.912C238.099 141.633 238.402 142.205 238.822 142.625C239.266 143.022 240.036 143.22 241.132 143.22C241.739 143.22 242.229 143.185 242.602 143.115C242.976 143.045 243.326 142.975 243.652 142.905C244.002 142.835 244.399 142.8 244.842 142.8C245.472 142.8 245.974 142.917 246.347 143.15C246.721 143.36 246.907 143.803 246.907 144.48C246.907 145.437 246.487 146.148 245.647 146.615C244.831 147.058 243.524 147.28 241.727 147.28ZM237.667 138.32C237.854 138.063 238.064 137.9 238.297 137.83C238.531 137.737 238.892 137.69 239.382 137.69C240.759 137.69 241.704 137.562 242.217 137.305C242.754 137.025 243.022 136.535 243.022 135.835C243.022 134.948 242.777 134.272 242.287 133.805C241.797 133.315 241.179 133.07 240.432 133.07C239.569 133.07 238.892 133.432 238.402 134.155C237.912 134.878 237.667 136.267 237.667 138.32ZM257.052 147.28C252.665 147.28 250.472 146.312 250.472 144.375C250.472 143.768 250.635 143.29 250.962 142.94C251.288 142.59 251.72 142.415 252.257 142.415C252.49 142.415 252.712 142.45 252.922 142.52C253.155 142.567 253.598 142.695 254.252 142.905C254.532 142.998 254.905 143.092 255.372 143.185C255.838 143.278 256.293 143.325 256.737 143.325C257.577 143.325 258.172 143.22 258.522 143.01C258.872 142.8 259.047 142.45 259.047 141.96C259.047 141.563 258.953 141.26 258.767 141.05C258.58 140.817 258.183 140.595 257.577 140.385C256.97 140.175 256.025 139.883 254.742 139.51C253.575 139.183 252.63 138.6 251.907 137.76C251.207 136.897 250.857 135.835 250.857 134.575C250.857 132.802 251.498 131.448 252.782 130.515C254.065 129.582 255.827 129.115 258.067 129.115C259.747 129.115 261.065 129.348 262.022 129.815C262.978 130.282 263.457 130.958 263.457 131.845C263.457 132.405 263.293 132.872 262.967 133.245C262.64 133.618 262.197 133.805 261.637 133.805C261.403 133.805 261.123 133.77 260.797 133.7C260.493 133.63 260.12 133.537 259.677 133.42C259.35 133.303 259 133.21 258.627 133.14C258.277 133.07 257.903 133.035 257.507 133.035C256.387 133.035 255.827 133.432 255.827 134.225C255.827 134.692 256.048 135.088 256.492 135.415C256.935 135.718 257.787 136.057 259.047 136.43C260.773 136.943 262.045 137.632 262.862 138.495C263.678 139.335 264.087 140.455 264.087 141.855C264.087 143.488 263.457 144.807 262.197 145.81C260.96 146.79 259.245 147.28 257.052 147.28ZM275.047 147.28C272.877 147.28 271.267 146.767 270.217 145.74C269.19 144.713 268.677 143.138 268.677 141.015V133.735H267.767C266.18 133.735 265.387 133.023 265.387 131.6C265.387 130.2 266.18 129.5 267.767 129.5H268.677V125.72C268.677 124.95 268.91 124.32 269.377 123.83C269.867 123.34 270.497 123.095 271.267 123.095C272.013 123.095 272.608 123.328 273.052 123.795C273.495 124.238 273.717 124.857 273.717 125.65V127.365C273.717 128.228 273.577 128.94 273.297 129.5H276.622C278.208 129.5 279.002 130.2 279.002 131.6C279.002 133.023 278.208 133.735 276.622 133.735H273.717V141.12C273.717 141.82 273.798 142.322 273.962 142.625C274.125 142.905 274.393 143.045 274.767 143.045C275.257 143.045 275.618 143.01 275.852 142.94C276.108 142.847 276.423 142.8 276.797 142.8C277.427 142.8 277.928 142.917 278.302 143.15C278.675 143.36 278.862 143.803 278.862 144.48C278.862 145.437 278.558 146.148 277.952 146.615C277.345 147.058 276.377 147.28 275.047 147.28ZM288.406 147.28C286.073 147.28 284.253 146.743 282.946 145.67C281.639 144.573 280.986 143.162 280.986 141.435C280.986 139.405 281.838 137.935 283.541 137.025C285.268 136.115 287.788 135.8 291.101 136.08C290.938 135.007 290.599 134.283 290.086 133.91C289.573 133.513 288.954 133.315 288.231 133.315C287.648 133.315 287.158 133.35 286.761 133.42C286.388 133.467 286.038 133.525 285.711 133.595C285.384 133.665 284.988 133.7 284.521 133.7C283.891 133.7 283.389 133.595 283.016 133.385C282.643 133.152 282.456 132.697 282.456 132.02C282.456 131.063 282.864 130.363 283.681 129.92C284.521 129.453 285.839 129.22 287.636 129.22C290.483 129.22 292.594 130.037 293.971 131.67C295.348 133.28 296.036 135.438 296.036 138.145C296.036 141.272 295.464 143.582 294.321 145.075C293.201 146.545 291.229 147.28 288.406 147.28ZM286.026 141.435C286.026 142.765 286.924 143.43 288.721 143.43C289.304 143.43 289.759 143.325 290.086 143.115C290.413 142.905 290.646 142.485 290.786 141.855C290.949 141.225 291.066 140.28 291.136 139.02C291.019 139.137 290.868 139.218 290.681 139.265C290.494 139.312 290.308 139.335 290.121 139.335C288.581 139.335 287.508 139.487 286.901 139.79C286.318 140.07 286.026 140.618 286.026 141.435ZM301.922 147.28C300.242 147.28 299.402 146.487 299.402 144.9V131.635C299.402 130.025 300.242 129.22 301.922 129.22C302.762 129.22 303.368 129.407 303.742 129.78C304.115 130.13 304.302 130.713 304.302 131.53C304.722 130.76 305.317 130.188 306.087 129.815C306.88 129.418 307.802 129.22 308.852 129.22C310.858 129.22 311.862 130.095 311.862 131.845C311.862 132.498 311.617 132.988 311.127 133.315C310.637 133.642 309.832 133.805 308.712 133.805C307.615 133.805 306.752 133.91 306.122 134.12C305.492 134.307 305.048 134.668 304.792 135.205C304.558 135.718 304.442 136.465 304.442 137.445V144.9C304.442 146.487 303.602 147.28 301.922 147.28Z" fill="white"/>
</g>
<defs>
<filter id="filter0_d_452_30" x="37" y="41" width="401" height="395" filterUnits="userSpaceOnUse" color-interpolation-filters="sRGB">
<feFlood flood-opacity="0" result="BackgroundImageFix"/>
<feColorMatrix in="SourceAlpha" type="matrix" values="0 0 0 0 0 0 0 0 0 0 0 0 0 0 0 0 0 0 127 0" result="hardAlpha"/>
<feOffset dy="15"/>
<feGaussianBlur stdDeviation="7.5"/>
<feComposite in2="hardAlpha" operator="out"/>
<feColorMatrix type="matrix" values="0 0 0 0 0 0 0 0 0 0 0 0 0 0 0 0 0 0 0.25 0"/>
<feBlend mode="normal" in2="BackgroundImageFix" result="effect1_dropShadow_452_30"/>
<feBlend mode="normal" in="SourceGraphic" in2="effect1_dropShadow_452_30" result="shape"/>
</filter>
<clipPath id="clip0_452_30">
<rect width="475" height="406" fill="white"/>
</clipPath>
</defs>
</svg>
