<svg width="51" height="51" viewBox="0 0 51 51" fill="none" xmlns="http://www.w3.org/2000/svg">
<path d="M8.9802 22.9457C9.76565 23.4476 13.5127 27.2814 20.6139 22.9457M29.9208 22.9457C30.612 23.4476 33.9094 27.2814 40.1584 22.9457M49 25.5C49 38.4787 38.4787 49 25.5 49C12.5213 49 2 38.4787 2 25.5C2 12.5213 12.5213 2 25.5 2C38.4787 2 49 12.5213 49 25.5ZM28.9901 34.9511C28.9901 37.0672 27.4275 38.7826 25.5 38.7826C23.5725 38.7826 22.0099 37.0672 22.0099 34.9511C22.0099 32.835 23.5725 31.1196 25.5 31.1196C27.4275 31.1196 28.9901 32.835 28.9901 34.9511Z" stroke="white" stroke-width="3"/>
</svg>
