<svg width="205" height="175" viewBox="0 0 205 175" fill="none" xmlns="http://www.w3.org/2000/svg">
<path d="M181.525 100.396C181.525 140.494 145.935 173 102.033 173C58.1299 173 22.5399 140.494 22.5399 100.396C22.5399 60.2976 58.1299 27.7917 102.033 27.7917C145.935 27.7917 181.525 60.2976 181.525 100.396Z" fill="#FFB03A"/>
<path d="M25.5026 3C17.7067 38.1061 14.9389 60.9777 22.2936 97.36L39.0002 52L78.0862 33.1041C75.4706 27.2405 41.6189 3.87751 25.5026 3Z" fill="#FFB03A"/>
<path d="M181.034 4.60425C187.806 39.9326 189.908 62.8786 181.5 99.0204L127.599 33.0909C130.384 27.3096 164.899 4.98971 181.034 4.60425Z" fill="#FFB03A"/>
<path d="M30.9151 109.41L2.99071 106.765M30.2961 129.413L2.30781 137.146M29.7481 119.489L1 122.78M170 125.29L196.662 134.002M174.997 105.911L204 104.514M173.352 115.714L202.121 118.817M181.525 100.396C181.525 140.494 145.935 173 102.033 173C58.1299 173 22.5399 140.494 22.5399 100.396C22.5399 60.2976 58.1299 27.7917 102.033 27.7917C145.935 27.7917 181.525 60.2976 181.525 100.396ZM22.2936 97.36C14.9389 60.9777 17.7067 38.1061 25.5026 3C41.6189 3.87751 75.4706 27.2405 78.0862 33.1041L39.0002 52L22.2936 97.36ZM181.5 99.0204C189.908 62.8786 187.806 39.9326 181.034 4.60425C164.899 4.98971 130.384 27.3096 127.599 33.0909L181.5 99.0204Z" stroke="#FFB03A" stroke-width="4"/>
<path d="M93.8537 40.9436C92.8191 34.933 92.3964 31.7395 92.8192 25.6046C93.8491 25.2691 102.98 24.7943 103.681 25.0963C104.383 25.3983 102.647 39.3661 102.129 40.9436C101.612 42.5211 99.9517 50.6052 97.4743 56.7017C95.8779 51.0471 94.8882 46.9542 93.8537 40.9436Z" fill="#D45F00"/>
<path d="M110.922 38.821C110.908 33.1374 110.232 30.0636 108.336 25.0962C111.565 25.4003 111.3 25.3061 114.543 25.8056C115.06 28.3472 117.129 30.3805 116.612 38.821C116.095 47.2615 113.447 51.7311 108.336 58.6456L110.922 38.821Z" fill="#D45F00"/>
<path d="M84.8447 39.9536C84.5513 34.2774 85.0592 31.1725 86.6828 26.1129C83.4751 26.5857 83.735 26.4776 80.5233 27.1464C80.1446 29.7115 78.1889 31.8502 79.1632 40.2516C80.1374 48.653 83.0244 52.9775 88.5024 59.6146L84.8447 39.9536Z" fill="#D45F00"/>
<path d="M43.5211 125.4C38.3639 128.788 35.572 130.474 29.7031 132.605C28.9702 131.819 24.793 123.825 24.7863 123.073C24.7797 122.32 38.4582 118.161 40.1345 117.979C41.8108 117.798 49.9958 115.978 56.6698 115.705C52.0731 119.451 48.6782 122.013 43.5211 125.4Z" fill="#D45F00"/>
<path d="M34.5656 110.963C29.2949 113.302 26.7175 115.166 22.8813 118.898C21.8424 115.879 21.8635 116.155 21 113.042C23.1481 111.539 24.1892 108.851 32.2373 105.861C40.2854 102.871 45.5188 103.417 54.0298 105.17L34.5656 110.963Z" fill="#D45F00"/>
<path d="M46.2885 133.884C41.1385 136.47 38.0481 137.285 32.6861 137.9C34.4377 140.583 34.231 140.394 36.1662 143C38.7027 142.29 41.4887 143.168 48.8901 138.857C56.2916 134.545 59.1253 130.187 63.0457 122.559L46.2885 133.884Z" fill="#D45F00"/>
<path d="M166.459 113.089C172.492 114.506 178.163 115.578 181.784 117.103C181.784 118.628 178.007 127.664 177.449 128.18C176.892 128.696 164.493 121.658 163.219 120.573C161.944 119.487 155.025 114.821 150.287 110.194C156.206 110.964 160.426 111.671 166.459 113.089Z" fill="#D45F00"/>
<path d="M161.764 129.355C167.091 131.567 169.666 132.631 175.06 132.861C173.58 135.682 173.239 135.731 171.439 138.453C168.857 137.925 167.237 138.273 159.536 134.501C151.836 130.729 148.688 126.584 144.214 119.255L161.764 129.355Z" fill="#D45F00"/>
<path d="M170.128 105.329C175.558 107.286 178.716 109.587 182.818 113.036C183.631 109.95 183.852 107.953 184 105.976C181.746 104.629 180.321 102.483 172.073 100.075C163.825 97.6666 158.646 98.5843 150.287 100.94L170.128 105.329Z" fill="#D45F00"/>
<path d="M78.0898 112.68C78.0898 123.549 72.4733 132.36 65.5449 132.36C58.6165 132.36 53 123.549 53 112.68C53 101.811 58.6165 93 65.5449 93C72.4733 93 78.0898 101.811 78.0898 112.68Z" fill="#D45F00"/>
<path d="M156 114.32C156 125.189 150.088 134 142.795 134C135.502 134 129.59 125.189 129.59 114.32C129.59 103.451 135.502 94.64 142.795 94.64C150.088 94.64 156 103.451 156 114.32Z" fill="#D45F00"/>
<path d="M134.527 98.4607L161 87M75.4727 98.4607L49 87M93.1212 147L103.303 136.213L114.164 147" stroke="#D45F00" stroke-width="5"/>
</svg>
