<svg width="475" height="413" viewBox="0 0 475 413" fill="none" xmlns="http://www.w3.org/2000/svg">
<g clip-path="url(#clip0_452_31)">
<g filter="url(#filter0_d_452_31)">
<path d="M54 121C54 76.8172 89.8172 41 134 41H345C389.183 41 425 76.8172 425 121V326C425 370.183 389.183 406 345 406H134C89.8172 406 54 370.183 54 326V121Z" fill="#47BFC0"/>
<path d="M134 43.5H345C387.802 43.5 422.5 78.1979 422.5 121V326C422.5 368.802 387.802 403.5 345 403.5H134C91.1979 403.5 56.5 368.802 56.5 326V121C56.5 78.1979 91.1979 43.5 134 43.5Z" stroke="#FD8B81" stroke-width="5"/>
</g>
<path d="M141.241 134C140.798 134 140.425 133.825 140.121 133.475C139.818 133.125 139.666 132.682 139.666 132.145V115.765C139.666 113.572 140.343 111.985 141.696 111.005C143.05 110.002 145.231 109.5 148.241 109.5H152.616C153.386 109.5 153.981 109.71 154.401 110.13C154.845 110.527 155.066 111.098 155.066 111.845C155.066 112.568 154.845 113.128 154.401 113.525C153.981 113.922 153.386 114.12 152.616 114.12H147.996C146.83 114.12 145.99 114.353 145.476 114.82C144.963 115.287 144.706 116.045 144.706 117.095C144.706 117.468 144.683 117.935 144.636 118.495C144.59 119.032 144.52 119.65 144.426 120.35C144.823 120.023 145.325 119.767 145.931 119.58C146.538 119.37 147.133 119.265 147.716 119.265H151.181C151.835 119.265 152.336 119.463 152.686 119.86C153.06 120.257 153.246 120.805 153.246 121.505C153.246 122.205 153.06 122.765 152.686 123.185C152.313 123.605 151.811 123.815 151.181 123.815H147.436C146.363 123.815 145.64 124.037 145.266 124.48C144.893 124.9 144.706 125.763 144.706 127.07V129.38H152.616C153.48 129.38 154.098 129.567 154.471 129.94C154.868 130.313 155.066 130.92 155.066 131.76C155.066 132.553 154.88 133.125 154.506 133.475C154.133 133.825 153.503 134 152.616 134H141.241ZM163.684 134.28C159.298 134.28 157.104 133.312 157.104 131.375C157.104 130.768 157.268 130.29 157.594 129.94C157.921 129.59 158.353 129.415 158.889 129.415C159.123 129.415 159.344 129.45 159.554 129.52C159.788 129.567 160.231 129.695 160.884 129.905C161.164 129.998 161.538 130.092 162.004 130.185C162.471 130.278 162.926 130.325 163.369 130.325C164.209 130.325 164.804 130.22 165.154 130.01C165.504 129.8 165.679 129.45 165.679 128.96C165.679 128.563 165.586 128.26 165.399 128.05C165.213 127.817 164.816 127.595 164.209 127.385C163.603 127.175 162.658 126.883 161.374 126.51C160.208 126.183 159.263 125.6 158.539 124.76C157.839 123.897 157.489 122.835 157.489 121.575C157.489 119.802 158.131 118.448 159.414 117.515C160.698 116.582 162.459 116.115 164.699 116.115C166.379 116.115 167.698 116.348 168.654 116.815C169.611 117.282 170.089 117.958 170.089 118.845C170.089 119.405 169.926 119.872 169.599 120.245C169.273 120.618 168.829 120.805 168.269 120.805C168.036 120.805 167.756 120.77 167.429 120.7C167.126 120.63 166.753 120.537 166.309 120.42C165.983 120.303 165.633 120.21 165.259 120.14C164.909 120.07 164.536 120.035 164.139 120.035C163.019 120.035 162.459 120.432 162.459 121.225C162.459 121.692 162.681 122.088 163.124 122.415C163.568 122.718 164.419 123.057 165.679 123.43C167.406 123.943 168.678 124.632 169.494 125.495C170.311 126.335 170.719 127.455 170.719 128.855C170.719 130.488 170.089 131.807 168.829 132.81C167.593 133.79 165.878 134.28 163.684 134.28ZM181.68 134.28C179.51 134.28 177.9 133.767 176.85 132.74C175.823 131.713 175.31 130.138 175.31 128.015V120.735H174.4C172.813 120.735 172.02 120.023 172.02 118.6C172.02 117.2 172.813 116.5 174.4 116.5H175.31V112.72C175.31 111.95 175.543 111.32 176.01 110.83C176.5 110.34 177.13 110.095 177.9 110.095C178.646 110.095 179.241 110.328 179.685 110.795C180.128 111.238 180.35 111.857 180.35 112.65V114.365C180.35 115.228 180.21 115.94 179.93 116.5H183.255C184.841 116.5 185.635 117.2 185.635 118.6C185.635 120.023 184.841 120.735 183.255 120.735H180.35V128.12C180.35 128.82 180.431 129.322 180.595 129.625C180.758 129.905 181.026 130.045 181.4 130.045C181.89 130.045 182.251 130.01 182.485 129.94C182.741 129.847 183.056 129.8 183.43 129.8C184.06 129.8 184.561 129.917 184.935 130.15C185.308 130.36 185.495 130.803 185.495 131.48C185.495 132.437 185.191 133.148 184.585 133.615C183.978 134.058 183.01 134.28 181.68 134.28ZM195.039 134.28C192.705 134.28 190.885 133.743 189.579 132.67C188.272 131.573 187.619 130.162 187.619 128.435C187.619 126.405 188.47 124.935 190.174 124.025C191.9 123.115 194.42 122.8 197.734 123.08C197.57 122.007 197.232 121.283 196.719 120.91C196.205 120.513 195.587 120.315 194.864 120.315C194.28 120.315 193.79 120.35 193.394 120.42C193.02 120.467 192.67 120.525 192.344 120.595C192.017 120.665 191.62 120.7 191.154 120.7C190.524 120.7 190.022 120.595 189.649 120.385C189.275 120.152 189.089 119.697 189.089 119.02C189.089 118.063 189.497 117.363 190.314 116.92C191.154 116.453 192.472 116.22 194.269 116.22C197.115 116.22 199.227 117.037 200.604 118.67C201.98 120.28 202.669 122.438 202.669 125.145C202.669 128.272 202.097 130.582 200.954 132.075C199.834 133.545 197.862 134.28 195.039 134.28ZM192.659 128.435C192.659 129.765 193.557 130.43 195.354 130.43C195.937 130.43 196.392 130.325 196.719 130.115C197.045 129.905 197.279 129.485 197.419 128.855C197.582 128.225 197.699 127.28 197.769 126.02C197.652 126.137 197.5 126.218 197.314 126.265C197.127 126.312 196.94 126.335 196.754 126.335C195.214 126.335 194.14 126.487 193.534 126.79C192.95 127.07 192.659 127.618 192.659 128.435ZM213.419 134.28C210.853 134.28 208.823 133.463 207.329 131.83C205.859 130.197 205.124 127.805 205.124 124.655C205.124 122.555 205.428 120.887 206.034 119.65C206.641 118.413 207.481 117.538 208.554 117.025C209.651 116.488 210.888 116.22 212.264 116.22C213.501 116.22 214.504 116.372 215.274 116.675C216.044 116.978 216.651 117.492 217.094 118.215C216.931 117.725 216.803 117.27 216.709 116.85C216.639 116.407 216.581 115.893 216.534 115.31C216.511 114.727 216.499 113.98 216.499 113.07V110.06C216.499 108.24 217.281 107.33 218.844 107.33C220.548 107.33 221.399 108.24 221.399 110.06V124.865C221.399 128.015 220.699 130.372 219.299 131.935C217.899 133.498 215.939 134.28 213.419 134.28ZM213.174 130.08C214.154 130.08 214.913 129.73 215.449 129.03C216.009 128.33 216.289 127.023 216.289 125.11C216.289 123.827 216.161 122.858 215.904 122.205C215.671 121.528 215.321 121.062 214.854 120.805C214.388 120.548 213.828 120.42 213.174 120.42C212.521 120.42 211.961 120.548 211.494 120.805C211.028 121.062 210.666 121.528 210.409 122.205C210.176 122.858 210.059 123.827 210.059 125.11C210.059 127.023 210.328 128.33 210.864 129.03C211.424 129.73 212.194 130.08 213.174 130.08ZM227.697 113.21C226.833 113.21 226.11 112.93 225.527 112.37C224.943 111.81 224.652 111.122 224.652 110.305C224.652 109.442 224.943 108.73 225.527 108.17C226.11 107.61 226.833 107.33 227.697 107.33C228.583 107.33 229.307 107.61 229.867 108.17C230.45 108.73 230.742 109.442 230.742 110.305C230.742 111.122 230.45 111.81 229.867 112.37C229.307 112.93 228.583 113.21 227.697 113.21ZM230.217 131.935C230.217 133.498 229.4 134.28 227.767 134.28C226.973 134.28 226.343 134.093 225.877 133.72C225.41 133.323 225.177 132.728 225.177 131.935V118.6C225.177 117.853 225.363 117.27 225.737 116.85C226.133 116.43 226.787 116.22 227.697 116.22C228.607 116.22 229.248 116.43 229.622 116.85C230.018 117.27 230.217 117.853 230.217 118.6V131.935ZM240.042 134.28C235.655 134.28 233.462 133.312 233.462 131.375C233.462 130.768 233.625 130.29 233.952 129.94C234.279 129.59 234.71 129.415 235.247 129.415C235.48 129.415 235.702 129.45 235.912 129.52C236.145 129.567 236.589 129.695 237.242 129.905C237.522 129.998 237.895 130.092 238.362 130.185C238.829 130.278 239.284 130.325 239.727 130.325C240.567 130.325 241.162 130.22 241.512 130.01C241.862 129.8 242.037 129.45 242.037 128.96C242.037 128.563 241.944 128.26 241.757 128.05C241.57 127.817 241.174 127.595 240.567 127.385C239.96 127.175 239.015 126.883 237.732 126.51C236.565 126.183 235.62 125.6 234.897 124.76C234.197 123.897 233.847 122.835 233.847 121.575C233.847 119.802 234.489 118.448 235.772 117.515C237.055 116.582 238.817 116.115 241.057 116.115C242.737 116.115 244.055 116.348 245.012 116.815C245.969 117.282 246.447 117.958 246.447 118.845C246.447 119.405 246.284 119.872 245.957 120.245C245.63 120.618 245.187 120.805 244.627 120.805C244.394 120.805 244.114 120.77 243.787 120.7C243.484 120.63 243.11 120.537 242.667 120.42C242.34 120.303 241.99 120.21 241.617 120.14C241.267 120.07 240.894 120.035 240.497 120.035C239.377 120.035 238.817 120.432 238.817 121.225C238.817 121.692 239.039 122.088 239.482 122.415C239.925 122.718 240.777 123.057 242.037 123.43C243.764 123.943 245.035 124.632 245.852 125.495C246.669 126.335 247.077 127.455 247.077 128.855C247.077 130.488 246.447 131.807 245.187 132.81C243.95 133.79 242.235 134.28 240.042 134.28ZM258.037 134.28C255.867 134.28 254.257 133.767 253.207 132.74C252.18 131.713 251.667 130.138 251.667 128.015V120.735H250.757C249.17 120.735 248.377 120.023 248.377 118.6C248.377 117.2 249.17 116.5 250.757 116.5H251.667V112.72C251.667 111.95 251.9 111.32 252.367 110.83C252.857 110.34 253.487 110.095 254.257 110.095C255.004 110.095 255.599 110.328 256.042 110.795C256.485 111.238 256.707 111.857 256.707 112.65V114.365C256.707 115.228 256.567 115.94 256.287 116.5H259.612C261.199 116.5 261.992 117.2 261.992 118.6C261.992 120.023 261.199 120.735 259.612 120.735H256.707V128.12C256.707 128.82 256.789 129.322 256.952 129.625C257.115 129.905 257.384 130.045 257.757 130.045C258.247 130.045 258.609 130.01 258.842 129.94C259.099 129.847 259.414 129.8 259.787 129.8C260.417 129.8 260.919 129.917 261.292 130.15C261.665 130.36 261.852 130.803 261.852 131.48C261.852 132.437 261.549 133.148 260.942 133.615C260.335 134.058 259.367 134.28 258.037 134.28ZM267.858 113.21C266.994 113.21 266.271 112.93 265.688 112.37C265.104 111.81 264.813 111.122 264.813 110.305C264.813 109.442 265.104 108.73 265.688 108.17C266.271 107.61 266.994 107.33 267.858 107.33C268.744 107.33 269.468 107.61 270.028 108.17C270.611 108.73 270.903 109.442 270.903 110.305C270.903 111.122 270.611 111.81 270.028 112.37C269.468 112.93 268.744 113.21 267.858 113.21ZM270.378 131.935C270.378 133.498 269.561 134.28 267.928 134.28C267.134 134.28 266.504 134.093 266.038 133.72C265.571 133.323 265.338 132.728 265.338 131.935V118.6C265.338 117.853 265.524 117.27 265.898 116.85C266.294 116.43 266.948 116.22 267.858 116.22C268.768 116.22 269.409 116.43 269.783 116.85C270.179 117.27 270.378 117.853 270.378 118.6V131.935ZM282.121 134.28C279.275 134.28 277.163 133.463 275.786 131.83C274.41 130.173 273.721 127.992 273.721 125.285C273.721 122.578 274.41 120.397 275.786 118.74C277.163 117.06 279.275 116.22 282.121 116.22C283.918 116.22 285.225 116.407 286.041 116.78C286.881 117.153 287.301 117.818 287.301 118.775C287.301 119.452 287.115 119.942 286.741 120.245C286.368 120.548 285.866 120.7 285.236 120.7C284.793 120.7 284.443 120.665 284.186 120.595C283.93 120.525 283.65 120.467 283.346 120.42C283.066 120.35 282.623 120.315 282.016 120.315C281.2 120.315 280.546 120.56 280.056 121.05C279.59 121.54 279.251 122.17 279.041 122.94C278.855 123.687 278.761 124.468 278.761 125.285C278.761 126.078 278.831 126.86 278.971 127.63C279.135 128.377 279.45 128.995 279.916 129.485C280.383 129.952 281.095 130.185 282.051 130.185C282.938 130.185 283.591 130.127 284.011 130.01C284.431 129.87 284.84 129.8 285.236 129.8C285.866 129.8 286.368 129.917 286.741 130.15C287.115 130.36 287.301 130.803 287.301 131.48C287.301 132.437 286.881 133.148 286.041 133.615C285.225 134.058 283.918 134.28 282.121 134.28ZM296.552 134.28C294.219 134.28 292.399 133.743 291.092 132.67C289.786 131.573 289.132 130.162 289.132 128.435C289.132 126.405 289.984 124.935 291.687 124.025C293.414 123.115 295.934 122.8 299.247 123.08C299.084 122.007 298.746 121.283 298.232 120.91C297.719 120.513 297.101 120.315 296.377 120.315C295.794 120.315 295.304 120.35 294.907 120.42C294.534 120.467 294.184 120.525 293.857 120.595C293.531 120.665 293.134 120.7 292.667 120.7C292.037 120.7 291.536 120.595 291.162 120.385C290.789 120.152 290.602 119.697 290.602 119.02C290.602 118.063 291.011 117.363 291.827 116.92C292.667 116.453 293.986 116.22 295.782 116.22C298.629 116.22 300.741 117.037 302.117 118.67C303.494 120.28 304.182 122.438 304.182 125.145C304.182 128.272 303.611 130.582 302.467 132.075C301.347 133.545 299.376 134.28 296.552 134.28ZM294.172 128.435C294.172 129.765 295.071 130.43 296.867 130.43C297.451 130.43 297.906 130.325 298.232 130.115C298.559 129.905 298.792 129.485 298.932 128.855C299.096 128.225 299.212 127.28 299.282 126.02C299.166 126.137 299.014 126.218 298.827 126.265C298.641 126.312 298.454 126.335 298.267 126.335C296.727 126.335 295.654 126.487 295.047 126.79C294.464 127.07 294.172 127.618 294.172 128.435ZM313.426 134.28C309.039 134.28 306.846 133.312 306.846 131.375C306.846 130.768 307.009 130.29 307.336 129.94C307.662 129.59 308.094 129.415 308.631 129.415C308.864 129.415 309.086 129.45 309.296 129.52C309.529 129.567 309.972 129.695 310.626 129.905C310.906 129.998 311.279 130.092 311.746 130.185C312.212 130.278 312.667 130.325 313.111 130.325C313.951 130.325 314.546 130.22 314.896 130.01C315.246 129.8 315.421 129.45 315.421 128.96C315.421 128.563 315.327 128.26 315.141 128.05C314.954 127.817 314.557 127.595 313.951 127.385C313.344 127.175 312.399 126.883 311.116 126.51C309.949 126.183 309.004 125.6 308.281 124.76C307.581 123.897 307.231 122.835 307.231 121.575C307.231 119.802 307.872 118.448 309.156 117.515C310.439 116.582 312.201 116.115 314.441 116.115C316.121 116.115 317.439 116.348 318.396 116.815C319.352 117.282 319.831 117.958 319.831 118.845C319.831 119.405 319.667 119.872 319.341 120.245C319.014 120.618 318.571 120.805 318.011 120.805C317.777 120.805 317.497 120.77 317.171 120.7C316.867 120.63 316.494 120.537 316.051 120.42C315.724 120.303 315.374 120.21 315.001 120.14C314.651 120.07 314.277 120.035 313.881 120.035C312.761 120.035 312.201 120.432 312.201 121.225C312.201 121.692 312.422 122.088 312.866 122.415C313.309 122.718 314.161 123.057 315.421 123.43C317.147 123.943 318.419 124.632 319.236 125.495C320.052 126.335 320.461 127.455 320.461 128.855C320.461 130.488 319.831 131.807 318.571 132.81C317.334 133.79 315.619 134.28 313.426 134.28Z" fill="white"/>
<path d="M129.709 24.0936C139.086 38.7772 129.566 61.6139 108.445 75.1009C87.3252 88.5879 62.6026 87.6179 53.2259 72.9343C43.8492 58.2506 53.3693 35.4139 74.4895 21.9269C95.6097 8.4399 120.332 9.40995 129.709 24.0936Z" fill="white"/>
<path d="M68.5631 59.0278C71.9589 59.1645 74.2895 62.9164 72.9012 66.0115L55.711 104.337C54.2307 107.637 49.69 107.713 47.6765 104.472L22.8184 64.4543C20.805 61.2129 22.894 57.1896 26.5148 57.3353L68.5631 59.0278Z" fill="white"/>
<path d="M321.625 224L242.062 296.833L200.188 258.5L137.375 316M321.625 224H271.375M321.625 224V270" stroke="white" stroke-width="4" stroke-linecap="round" stroke-linejoin="round"/>
</g>
<defs>
<filter id="filter0_d_452_31" x="39" y="41" width="401" height="395" filterUnits="userSpaceOnUse" color-interpolation-filters="sRGB">
<feFlood flood-opacity="0" result="BackgroundImageFix"/>
<feColorMatrix in="SourceAlpha" type="matrix" values="0 0 0 0 0 0 0 0 0 0 0 0 0 0 0 0 0 0 127 0" result="hardAlpha"/>
<feOffset dy="15"/>
<feGaussianBlur stdDeviation="7.5"/>
<feComposite in2="hardAlpha" operator="out"/>
<feColorMatrix type="matrix" values="0 0 0 0 0 0 0 0 0 0 0 0 0 0 0 0 0 0 0.25 0"/>
<feBlend mode="normal" in2="BackgroundImageFix" result="effect1_dropShadow_452_31"/>
<feBlend mode="normal" in="SourceGraphic" in2="effect1_dropShadow_452_31" result="shape"/>
</filter>
<clipPath id="clip0_452_31">
<rect width="475" height="413" fill="white"/>
</clipPath>
</defs>
</svg>
