<svg width="205" height="175" viewBox="0 0 205 175" fill="none" xmlns="http://www.w3.org/2000/svg">
<path d="M181.525 100.396C181.525 140.494 145.935 173 102.033 173C58.1299 173 22.5399 140.494 22.5399 100.396C22.5399 60.2976 58.1299 27.7917 102.033 27.7917C145.935 27.7917 181.525 60.2976 181.525 100.396Z" fill="#FFB03A"/>
<path d="M25.5026 3C17.7067 38.1061 14.9389 60.9777 22.2936 97.36L39.0002 52L78.0862 33.1041C75.4706 27.2405 41.6189 3.87751 25.5026 3Z" fill="#FFB03A"/>
<path d="M181.034 4.60425C187.806 39.9326 189.908 62.8786 181.5 99.0204L127.599 33.0909C130.384 27.3096 164.899 4.98971 181.034 4.60425Z" fill="#FFB03A"/>
<path d="M30.9151 109.41L2.99071 106.765M30.2961 129.413L2.30781 137.146M29.7481 119.489L1 122.78M170 125.29L196.662 134.002M174.997 105.911L204 104.514M173.352 115.714L202.121 118.817M181.525 100.396C181.525 140.494 145.935 173 102.033 173C58.1299 173 22.5399 140.494 22.5399 100.396C22.5399 60.2976 58.1299 27.7917 102.033 27.7917C145.935 27.7917 181.525 60.2976 181.525 100.396ZM22.2936 97.36C14.9389 60.9777 17.7067 38.1061 25.5026 3C41.6189 3.87751 75.4706 27.2405 78.0862 33.1041L39.0002 52L22.2936 97.36ZM181.5 99.0204C189.908 62.8786 187.806 39.9326 181.034 4.60425C164.899 4.98971 130.384 27.3096 127.599 33.0909L181.5 99.0204Z" stroke="#FFB03A" stroke-width="4"/>
<path d="M93.9598 41.9436C92.9379 35.933 92.5204 32.7395 92.938 26.6046C93.9552 26.2691 102.974 25.7943 103.667 26.0963C104.36 26.3983 102.645 40.3661 102.134 41.9436C101.623 43.5211 99.983 51.6052 97.536 57.7017C95.9592 52.0471 94.9816 47.9542 93.9598 41.9436Z" fill="#D45F00"/>
<path d="M110.819 39.821C110.804 34.1374 110.137 31.0636 108.265 26.0962C111.454 26.4003 111.192 26.3061 114.395 26.8056C114.906 29.3472 116.95 31.3805 116.439 39.821C115.928 48.2615 113.312 52.7311 108.265 59.6456L110.819 39.821Z" fill="#D45F00"/>
<path d="M85.0613 40.9536C84.7715 35.2774 85.2732 32.1725 86.8769 27.1129C83.7085 27.5857 83.9653 27.4776 80.7929 28.1464C80.4189 30.7115 78.4872 32.8502 79.4495 41.2516C80.4118 49.653 83.2633 53.9775 88.6741 60.6146L85.0613 40.9536Z" fill="#D45F00"/>
<path d="M44.2447 126.4C39.1509 129.788 36.3932 131.474 30.5964 133.605C29.8724 132.819 25.7465 124.825 25.7399 124.073C25.7333 123.32 39.244 119.161 40.8997 118.979C42.5555 118.798 50.6401 116.978 57.2321 116.705C52.6918 120.451 49.3386 123.013 44.2447 126.4Z" fill="#D45F00"/>
<path d="M35.3991 111.963C30.1931 114.302 27.6473 116.166 23.8582 119.898C22.832 116.879 22.8529 117.155 22 114.042C24.1217 112.539 25.1501 109.851 33.0994 106.861C41.0488 103.871 46.218 104.417 54.6245 106.17L35.3991 111.963Z" fill="#D45F00"/>
<path d="M46.9782 134.884C41.8914 137.47 38.8389 138.285 33.5427 138.9C35.2728 141.583 35.0687 141.394 36.9801 144C39.4854 143.29 42.2373 144.168 49.5479 139.857C56.8586 135.545 59.6575 131.187 63.5298 123.559L46.9782 134.884Z" fill="#D45F00"/>
<path d="M165.674 114.089C171.633 115.506 177.235 116.578 180.811 118.103C180.811 119.628 177.08 128.664 176.53 129.18C175.979 129.696 163.733 122.658 162.474 121.573C161.215 120.487 154.381 115.821 149.7 111.194C155.547 111.964 159.715 112.671 165.674 114.089Z" fill="#D45F00"/>
<path d="M161.037 130.355C166.299 132.567 168.842 133.631 174.169 133.861C172.707 136.682 172.371 136.731 170.593 139.453C168.043 138.925 166.442 139.273 158.837 135.501C151.231 131.729 148.121 127.584 143.702 120.255L161.037 130.355Z" fill="#D45F00"/>
<path d="M169.298 106.329C174.661 108.286 177.781 110.587 181.833 114.036C182.636 110.95 182.854 108.953 183 106.976C180.774 105.629 179.366 103.483 171.22 101.075C163.073 98.6666 157.957 99.5843 149.701 101.94L169.298 106.329Z" fill="#D45F00"/>
<path d="M115.374 122C117.874 124.5 116.874 127 116.874 127C114.374 133 107.62 133.372 101.374 126C96.3736 132.5 86.8736 132.5 85.3738 128.5C83.874 124.5 87.3737 122 87.3737 122M119.895 102.437C125.699 89.0446 149.03 85.7843 155.288 93.5174M44 94.1661C54.4497 83.5544 77.0219 91.4325 79.6865 101.829" stroke="#D45F00" stroke-width="6"/>
</svg>
