<svg width="1470" height="1015" viewBox="0 0 1470 1015" fill="none" xmlns="http://www.w3.org/2000/svg">
<rect width="1470" height="1015" fill="#F5F5F5"/>
<rect x="5" y="60" width="1459" height="955" fill="#F2EFE7"/>
<path d="M6.37332e-05 293H1470C1470 293 1470 442.511 1470 689.915C1470 845.548 1307.84 388.687 687.669 689.915C340.775 858.407 0.000116926 792.41 6.37332e-05 689.915C-7.96665e-05 413.605 6.37332e-05 293 6.37332e-05 293Z" fill="#48A6A7"/>
<path d="M1470 0H0C0 0 0 150.109 0 398.503C0 554.758 137.5 199 782.331 398.503C1099.49 496.628 1470 501.407 1470 398.503C1470 121.088 1470 0 1470 0Z" fill="#9ACBD0"/>
<g opacity="0.5">
<g clip-path="url(#clip0_100_41)">
<rect x="123" y="497" width="70" height="70" rx="35" fill="#F2EFE7" fill-opacity="0.5"/>
<circle cx="158" cy="532" r="35" fill="url(#paint0_linear_100_41)" fill-opacity="0.5"/>
</g>
</g>
<defs>
<linearGradient id="paint0_linear_100_41" x1="158" y1="497" x2="158" y2="567" gradientUnits="userSpaceOnUse">
<stop stop-color="#F2EFE7"/>
<stop offset="1" stop-color="#E8EAEA"/>
</linearGradient>
<clipPath id="clip0_100_41">
<rect x="123" y="497" width="70" height="70" rx="35" fill="white"/>
</clipPath>
</defs>
</svg>
