<svg width="68" height="57" viewBox="0 0 68 57" fill="none" xmlns="http://www.w3.org/2000/svg">
<path d="M40.756 5.69476C39.7113 3.73899 40.3119 1.38028 42.0975 0.426441C43.8831 -0.527396 46.1776 0.284837 47.2223 2.24061L63.1122 31.9871C64.157 33.9429 63.5564 36.3016 61.7707 37.2554C59.9851 38.2093 57.6907 37.397 56.6459 35.4412L40.756 5.69476Z" fill="#006A71"/>
<path d="M49.9807 8.96028C48.9359 7.0045 49.5365 4.64579 51.3221 3.69195C53.1077 2.73812 55.4022 3.55035 56.4469 5.50613L65.5269 22.5041C66.5716 24.4599 65.971 26.8186 64.1854 27.7724C62.3998 28.7263 60.1053 27.914 59.0606 25.9583L49.9807 8.96028Z" fill="#006A71"/>
<path d="M57.6678 11.6815C56.6231 9.72576 57.2237 7.36705 59.0093 6.41321C60.7949 5.45938 63.0894 6.27161 64.1341 8.22739L67.3499 14.2475C68.3947 16.2033 67.7941 18.562 66.0085 19.5158C64.2229 20.4697 61.9284 19.6574 60.8837 17.7017L57.6678 11.6815Z" fill="#006A71"/>
<path d="M0.843732 40.6702C-0.201001 38.7145 0.3996 36.3558 2.18521 35.4019C3.97083 34.4481 6.26528 35.2603 7.31001 37.2161L10.5258 43.2362C11.5706 45.192 10.97 47.5507 9.18435 48.5045C7.39874 49.4584 5.10429 48.6461 4.05955 46.6904L0.843732 40.6702Z" fill="#006A71"/>
<path d="M3.74677 33.6574C2.70203 31.7016 3.30263 29.3429 5.08825 28.3891C6.87386 27.4353 9.16831 28.2475 10.213 30.2033L19.293 47.2013C20.3377 49.157 19.7371 51.5157 17.9515 52.4696C16.1659 53.4234 13.8715 52.6112 12.8267 50.6554L3.74677 33.6574Z" fill="#006A71"/>
<path d="M5.83812 24.3472C4.79338 22.3914 5.39398 20.0327 7.1796 19.0788C8.96521 18.125 11.2597 18.9372 12.3044 20.893L28.1943 50.6395C29.2391 52.5953 28.6385 54.954 26.8528 55.9078C25.0672 56.8616 22.7728 56.0494 21.728 54.0936L5.83812 24.3472Z" fill="#006A71"/>
<path d="M13.9896 31.8273L45.6743 14.902L51.5385 25.8799L19.8537 42.8052L13.9896 31.8273Z" fill="#006A71"/>
</svg>
