<svg width="52" height="64" viewBox="0 0 52 64" fill="none" xmlns="http://www.w3.org/2000/svg">
<path d="M8.68949 62L2 7.28217C2 7.28217 5.63814 1.99999 25.824 2C46.0098 2.00001 50 7.28217 50 7.28217L44.3667 62H8.68949Z" fill="#EAFAFF"/>
<path d="M2 7.28217L8.68949 62H44.3667L50 7.28217M2 7.28217C20.3904 14.1968 30.8954 14.3651 50 7.28217M2 7.28217C2 7.28217 5.63814 1.99999 25.824 2C46.0098 2.00001 50 7.28217 50 7.28217" stroke="#CCEDF0" stroke-width="3"/>
<path d="M45 30.3863L41.96 59H11.0533L7 30.3863C20.87 25.8913 29.1949 25.8513 45 30.3863Z" fill="#A4D6E2"/>
<path d="M7 30.3863C20.4106 37.0736 28.6846 37.2853 45 30.3863M7 30.3863L11.0533 59H41.96L45 30.3863M7 30.3863C20.87 25.8913 29.1949 25.8513 45 30.3863" stroke="#A0CFDB"/>
</svg>
