<svg width="205" height="175" viewBox="0 0 205 175" fill="none" xmlns="http://www.w3.org/2000/svg">
<path d="M181.525 100.396C181.525 140.494 145.935 173 102.033 173C58.1299 173 22.5399 140.494 22.5399 100.396C22.5399 60.2976 58.1299 27.7917 102.033 27.7917C145.935 27.7917 181.525 60.2976 181.525 100.396Z" fill="#FFB03A"/>
<path d="M25.5026 3C17.7067 38.1061 14.9389 60.9777 22.2936 97.36L39.0002 52L78.0862 33.1041C75.4706 27.2405 41.6189 3.87751 25.5026 3Z" fill="#FFB03A"/>
<path d="M181.034 4.60425C187.806 39.9326 189.908 62.8786 181.5 99.0204L127.599 33.0909C130.384 27.3096 164.899 4.98971 181.034 4.60425Z" fill="#FFB03A"/>
<path d="M30.9151 109.41L2.99071 106.765M30.2961 129.413L2.30781 137.146M29.7481 119.489L1 122.78M170 125.29L196.662 134.002M174.997 105.911L204 104.514M173.352 115.714L202.121 118.817M181.525 100.396C181.525 140.494 145.935 173 102.033 173C58.1299 173 22.5399 140.494 22.5399 100.396C22.5399 60.2976 58.1299 27.7917 102.033 27.7917C145.935 27.7917 181.525 60.2976 181.525 100.396ZM22.2936 97.36C14.9389 60.9777 17.7067 38.1061 25.5026 3C41.6189 3.87751 75.4706 27.2405 78.0862 33.1041L39.0002 52L22.2936 97.36ZM181.5 99.0204C189.908 62.8786 187.806 39.9326 181.034 4.60425C164.899 4.98971 130.384 27.3096 127.599 33.0909L181.5 99.0204Z" stroke="#FFB03A" stroke-width="4"/>
<path d="M94.9598 41.9436C93.9379 35.933 93.5204 32.7395 93.938 26.6046C94.9552 26.2691 103.974 25.7943 104.667 26.0963C105.36 26.3983 103.645 40.3661 103.134 41.9436C102.623 43.5211 100.983 51.6052 98.536 57.7017C96.9592 52.0471 95.9816 47.9542 94.9598 41.9436Z" fill="#D45F00"/>
<path d="M111.819 39.821C111.804 34.1374 111.137 31.0636 109.265 26.0962C112.454 26.4003 112.192 26.3061 115.395 26.8056C115.906 29.3472 117.95 31.3805 117.439 39.821C116.928 48.2615 114.312 52.7311 109.265 59.6456L111.819 39.821Z" fill="#D45F00"/>
<path d="M86.0613 40.9536C85.7715 35.2774 86.2732 32.1725 87.8769 27.1129C84.7085 27.5857 84.9653 27.4776 81.7929 28.1464C81.4189 30.7115 79.4872 32.8502 80.4495 41.2516C81.4118 49.653 84.2633 53.9775 89.6741 60.6146L86.0613 40.9536Z" fill="#D45F00"/>
<path d="M45.2447 126.4C40.1509 129.788 37.3932 131.474 31.5964 133.605C30.8724 132.819 26.7465 124.825 26.7399 124.073C26.7333 123.32 40.244 119.161 41.8997 118.979C43.5555 118.798 51.6401 116.978 58.2321 116.705C53.6918 120.451 50.3386 123.013 45.2447 126.4Z" fill="#D45F00"/>
<path d="M36.3991 111.963C31.1931 114.302 28.6473 116.166 24.8582 119.898C23.832 116.879 23.8529 117.155 23 114.042C25.1217 112.539 26.1501 109.851 34.0994 106.861C42.0488 103.871 47.218 104.417 55.6245 106.17L36.3991 111.963Z" fill="#D45F00"/>
<path d="M47.9782 134.884C42.8914 137.47 39.8389 138.285 34.5427 138.9C36.2728 141.583 36.0687 141.394 37.9801 144C40.4854 143.29 43.2373 144.168 50.5479 139.857C57.8586 135.545 60.6575 131.187 64.5298 123.559L47.9782 134.884Z" fill="#D45F00"/>
<path d="M166.674 114.089C172.633 115.506 178.235 116.578 181.811 118.103C181.811 119.628 178.08 128.664 177.53 129.18C176.979 129.696 164.733 122.658 163.474 121.573C162.215 120.487 155.381 115.821 150.7 111.194C156.547 111.964 160.715 112.671 166.674 114.089Z" fill="#D45F00"/>
<path d="M162.037 130.355C167.299 132.567 169.842 133.631 175.169 133.861C173.707 136.682 173.371 136.731 171.593 139.453C169.043 138.925 167.442 139.273 159.837 135.501C152.231 131.729 149.121 127.584 144.702 120.255L162.037 130.355Z" fill="#D45F00"/>
<path d="M170.298 106.329C175.661 108.286 178.781 110.587 182.833 114.036C183.636 110.95 183.854 108.953 184 106.976C181.774 105.629 180.366 103.483 172.22 101.075C164.073 98.6666 158.957 99.5843 150.701 101.94L170.298 106.329Z" fill="#D45F00"/>
<path d="M118.055 120.553C121.016 123.034 119.832 125.516 119.832 125.516C116.871 131.472 108.871 131.841 101.474 124.523C95.5524 130.975 84.3014 130.975 82.5251 127.005C80.7488 123.034 84.8937 120.553 84.8937 120.553M110.506 92.9248C116.576 80.0209 148.588 91.0967 156 98.7727M43 99.4169C55.3757 88.8837 84.8484 82.6052 88.0042 92.9251" stroke="#D45F00" stroke-width="6"/>
</svg>
