<svg width="344" height="336" viewBox="0 0 344 336" fill="none" xmlns="http://www.w3.org/2000/svg">
<path d="M332 192.5C332 271.753 259.918 336 171 336C82.0822 336 10 271.753 10 192.5C10 113.247 82.0822 49 171 49C259.918 49 332 113.247 332 192.5Z" fill="#D9D9D9"/>
<path d="M16.0001 -0.000244141C0.210693 69.3859 -5.39515 114.591 9.50076 186.5L122.5 59.4997C117.203 47.9104 48.6411 1.73413 16.0001 -0.000244141Z" fill="#D9D9D9"/>
<path d="M331.005 3.17068C344.721 72.9962 348.979 118.348 331.949 189.782L222.781 59.4737C228.421 48.0473 298.327 3.93255 331.005 3.17068Z" fill="#D9D9D9"/>
</svg>
