<svg width="205" height="175" viewBox="0 0 205 175" fill="none" xmlns="http://www.w3.org/2000/svg">
<path d="M181.525 100.396C181.525 140.494 145.935 173 102.033 173C58.1299 173 22.5399 140.494 22.5399 100.396C22.5399 60.2976 58.1299 27.7917 102.033 27.7917C145.935 27.7917 181.525 60.2976 181.525 100.396Z" fill="#FFB03A"/>
<path d="M25.5026 3C17.7067 38.1061 14.9389 60.9777 22.2936 97.36L39.0002 52L78.0862 33.1041C75.4706 27.2405 41.6189 3.87751 25.5026 3Z" fill="#FFB03A"/>
<path d="M181.034 4.60425C187.806 39.9326 189.908 62.8786 181.5 99.0204L127.599 33.0909C130.384 27.3096 164.899 4.98971 181.034 4.60425Z" fill="#FFB03A"/>
<path d="M30.9151 109.41L2.99071 106.765M30.2961 129.413L2.30781 137.146M29.7481 119.489L1 122.78M170 125.29L196.662 134.002M174.997 105.911L204 104.514M173.352 115.714L202.121 118.817M181.525 100.396C181.525 140.494 145.935 173 102.033 173C58.1299 173 22.5399 140.494 22.5399 100.396C22.5399 60.2976 58.1299 27.7917 102.033 27.7917C145.935 27.7917 181.525 60.2976 181.525 100.396ZM22.2936 97.36C14.9389 60.9777 17.7067 38.1061 25.5026 3C41.6189 3.87751 75.4706 27.2405 78.0862 33.1041L39.0002 52L22.2936 97.36ZM181.5 99.0204C189.908 62.8786 187.806 39.9326 181.034 4.60425C164.899 4.98971 130.384 27.3096 127.599 33.0909L181.5 99.0204Z" stroke="#FFB03A" stroke-width="4"/>
<path d="M93.8537 41.9436C92.8191 35.933 92.3964 32.7395 92.8192 26.6046C93.8491 26.2691 102.98 25.7943 103.681 26.0963C104.383 26.3983 102.647 40.3661 102.129 41.9436C101.612 43.5211 99.9517 51.6052 97.4743 57.7017C95.8779 52.0471 94.8882 47.9542 93.8537 41.9436Z" fill="#D45F00"/>
<path d="M110.922 39.821C110.908 34.1374 110.232 31.0636 108.336 26.0962C111.565 26.4003 111.3 26.3061 114.543 26.8056C115.06 29.3472 117.129 31.3805 116.612 39.821C116.095 48.2615 113.447 52.7311 108.336 59.6456L110.922 39.821Z" fill="#D45F00"/>
<path d="M84.8447 40.9536C84.5513 35.2774 85.0592 32.1725 86.6828 27.1129C83.4751 27.5857 83.735 27.4776 80.5233 28.1464C80.1446 30.7115 78.1889 32.8502 79.1632 41.2516C80.1374 49.653 83.0244 53.9775 88.5024 60.6146L84.8447 40.9536Z" fill="#D45F00"/>
<path d="M43.5211 126.4C38.3639 129.788 35.572 131.474 29.7031 133.605C28.9702 132.819 24.793 124.825 24.7863 124.073C24.7797 123.32 38.4582 119.161 40.1345 118.979C41.8108 118.798 49.9958 116.978 56.6698 116.705C52.0731 120.451 48.6782 123.013 43.5211 126.4Z" fill="#D45F00"/>
<path d="M34.5656 111.963C29.2949 114.302 26.7175 116.166 22.8813 119.898C21.8424 116.879 21.8635 117.155 21 114.042C23.1481 112.539 24.1892 109.851 32.2373 106.861C40.2854 103.871 45.5188 104.417 54.0298 106.17L34.5656 111.963Z" fill="#D45F00"/>
<path d="M46.2885 134.884C41.1385 137.47 38.0481 138.285 32.6861 138.9C34.4377 141.583 34.231 141.394 36.1662 144C38.7027 143.29 41.4887 144.168 48.8901 139.857C56.2916 135.545 59.1253 131.187 63.0457 123.559L46.2885 134.884Z" fill="#D45F00"/>
<path d="M166.459 114.089C172.492 115.506 178.163 116.578 181.784 118.103C181.784 119.628 178.007 128.664 177.449 129.18C176.892 129.696 164.493 122.658 163.219 121.573C161.944 120.487 155.025 115.821 150.287 111.194C156.206 111.964 160.426 112.671 166.459 114.089Z" fill="#D45F00"/>
<path d="M161.764 130.355C167.091 132.567 169.666 133.631 175.06 133.861C173.58 136.682 173.239 136.731 171.439 139.453C168.857 138.925 167.237 139.273 159.536 135.501C151.836 131.729 148.688 127.584 144.214 120.255L161.764 130.355Z" fill="#D45F00"/>
<path d="M170.128 106.329C175.558 108.286 178.716 110.587 182.818 114.036C183.631 110.95 183.852 108.953 184 106.976C181.746 105.629 180.321 103.483 172.073 101.075C163.825 98.6666 158.646 99.5843 150.287 101.94L170.128 106.329Z" fill="#D45F00"/>
<path d="M78.0898 108.68C78.0898 119.549 72.4733 128.36 65.5449 128.36C58.6165 128.36 53 119.549 53 108.68C53 97.811 58.6165 89 65.5449 89C72.4733 89 78.0898 97.811 78.0898 108.68Z" fill="#D45F00"/>
<path d="M156 110.32C156 121.189 150.088 130 142.795 130C135.502 130 129.59 121.189 129.59 110.32C129.59 99.451 135.502 90.64 142.795 90.64C150.088 90.64 156 99.451 156 110.32Z" fill="#D45F00"/>
<path d="M75.7251 88.339L48.0355 97.1932M160.04 97.986L131.208 88.5946M94.9048 148.262L103.691 138.457L113.108 148.188" stroke="#D45F00" stroke-width="5"/>
</svg>
