<svg width="530" height="545" viewBox="0 0 530 545" fill="none" xmlns="http://www.w3.org/2000/svg">
<path d="M0 80C0 35.8172 35.8172 0 80 0H450C494.183 0 530 35.8172 530 80V465C530 509.183 494.183 545 450 545H80C35.8172 545 0 509.183 0 465V80Z" fill="#FF6F61"/>
<path d="M60.92 59.12C60.92 62.2933 61.3067 64.5733 62.08 65.96C62.8533 67.32 64 68 65.52 68C66.48 68 67.32 67.9333 68.04 67.8C68.76 67.64 69.4133 67.56 70 67.56C71.0667 67.56 71.84 67.7867 72.32 68.24C72.8 68.6667 73.04 69.2267 73.04 69.92C73.04 70.8267 72.7067 71.52 72.04 72C71.4 72.48 70.5733 72.8133 69.56 73C68.5733 73.1867 67.56 73.28 66.52 73.28C63.64 73.28 61.3467 72.7467 59.64 71.68C57.96 70.6133 56.7467 69.04 56 66.96C55.28 64.8533 54.92 62.24 54.92 59.12C54.92 56 55.28 53.36 56 51.2C56.7467 49.0133 57.96 47.36 59.64 46.24C61.3467 45.12 63.64 44.56 66.52 44.56C67.56 44.56 68.5733 44.6533 69.56 44.84C70.5733 45.0267 71.4 45.36 72.04 45.84C72.7067 46.32 73.04 47.0133 73.04 47.92C73.04 48.5867 72.8 49.1467 72.32 49.6C71.84 50.0533 71.0667 50.28 70 50.28C69.4133 50.28 68.76 50.2133 68.04 50.08C67.32 49.92 66.48 49.84 65.52 49.84C63.6533 49.84 62.4133 50.6 61.8 52.12C61.2133 53.6133 60.92 55.9467 60.92 59.12Z" fill="white"/>
<path d="M82.1312 73.32C79.4646 73.32 77.3846 72.7067 75.8913 71.48C74.3979 70.2267 73.6513 68.6133 73.6513 66.64C73.6513 64.32 74.6246 62.64 76.5713 61.6C78.5446 60.56 81.4246 60.2 85.2113 60.52C85.0246 59.2933 84.6379 58.4667 84.0513 58.04C83.4646 57.5867 82.7579 57.36 81.9313 57.36C81.2646 57.36 80.7046 57.4 80.2513 57.48C79.8246 57.5333 79.4246 57.6 79.0512 57.68C78.6779 57.76 78.2246 57.8 77.6913 57.8C76.9713 57.8 76.3979 57.68 75.9713 57.44C75.5446 57.1733 75.3313 56.6533 75.3313 55.88C75.3313 54.7867 75.7979 53.9867 76.7312 53.48C77.6912 52.9467 79.1979 52.68 81.2513 52.68C84.5046 52.68 86.9179 53.6133 88.4912 55.48C90.0646 57.32 90.8512 59.7867 90.8512 62.88C90.8512 66.4533 90.1979 69.0933 88.8913 70.8C87.6113 72.48 85.3579 73.32 82.1312 73.32ZM79.4112 66.64C79.4112 68.16 80.4379 68.92 82.4912 68.92C83.1579 68.92 83.6779 68.8 84.0513 68.56C84.4246 68.32 84.6912 67.84 84.8512 67.12C85.0379 66.4 85.1713 65.32 85.2513 63.88C85.1179 64.0133 84.9446 64.1067 84.7312 64.16C84.5179 64.2133 84.3046 64.24 84.0912 64.24C82.3312 64.24 81.1046 64.4133 80.4112 64.76C79.7446 65.08 79.4112 65.7067 79.4112 66.64Z" fill="white"/>
<path d="M100.501 70.64C100.501 72.4267 99.5673 73.32 97.7006 73.32C96.794 73.32 96.074 73.0933 95.5406 72.64C95.0073 72.1867 94.7406 71.52 94.7406 70.64V45.64C94.7406 44.68 94.954 43.92 95.3806 43.36C95.834 42.8 96.5806 42.52 97.6206 42.52C98.6606 42.52 99.394 42.8 99.8206 43.36C100.274 43.92 100.501 44.68 100.501 45.64V70.64Z" fill="white"/>
<path d="M114.8 73.32C112.133 73.32 110.04 72.88 108.52 72C107.027 71.12 105.96 69.9067 105.32 68.36C104.707 66.8133 104.4 65.04 104.4 63.04C104.4 59.36 105.213 56.72 106.84 55.12C108.467 53.4933 110.653 52.68 113.4 52.68C115.053 52.68 116.52 52.96 117.8 53.52C119.08 54.08 120.08 54.88 120.8 55.92C121.52 56.9333 121.88 58.1733 121.88 59.64C121.88 63.9067 118.84 66.04 112.76 66.04H110.44C110.653 66.8667 111 67.52 111.48 68C111.987 68.4533 112.867 68.68 114.12 68.68C114.813 68.68 115.373 68.64 115.8 68.56C116.227 68.48 116.627 68.4 117 68.32C117.4 68.24 117.853 68.2 118.36 68.2C119.08 68.2 119.653 68.3333 120.08 68.6C120.507 68.84 120.72 69.3467 120.72 70.12C120.72 71.2133 120.24 72.0267 119.28 72.56C118.347 73.0667 116.853 73.32 114.8 73.32ZM110.16 63.08C110.373 62.7867 110.613 62.6 110.88 62.52C111.147 62.4133 111.56 62.36 112.12 62.36C113.693 62.36 114.773 62.2133 115.36 61.92C115.973 61.6 116.28 61.04 116.28 60.24C116.28 59.2267 116 58.4533 115.44 57.92C114.88 57.36 114.173 57.08 113.32 57.08C112.333 57.08 111.56 57.4933 111 58.32C110.44 59.1467 110.16 60.7333 110.16 63.08Z" fill="white"/>
<path d="M128.242 73.32C126.322 73.32 125.362 72.4133 125.362 70.6V61C125.362 58.44 126.175 56.4133 127.802 54.92C129.455 53.4267 131.629 52.68 134.322 52.68C137.015 52.68 139.175 53.4267 140.802 54.92C142.455 56.4133 143.282 58.44 143.282 61V70.6C143.282 72.4133 142.322 73.32 140.402 73.32C138.482 73.32 137.522 72.4133 137.522 70.6V61.32C137.522 60.0667 137.242 59.12 136.682 58.48C136.122 57.8133 135.335 57.48 134.322 57.48C133.309 57.48 132.522 57.8133 131.962 58.48C131.402 59.12 131.122 60.0667 131.122 61.32V70.6C131.122 72.4133 130.162 73.32 128.242 73.32Z" fill="white"/>
<path d="M156.614 73.32C153.681 73.32 151.361 72.3867 149.654 70.52C147.974 68.6533 147.134 65.92 147.134 62.32C147.134 59.92 147.481 58.0133 148.174 56.6C148.868 55.1867 149.828 54.1867 151.054 53.6C152.308 52.9867 153.721 52.68 155.294 52.68C156.708 52.68 157.854 52.8533 158.734 53.2C159.614 53.5467 160.308 54.1333 160.814 54.96C160.628 54.4 160.481 53.88 160.374 53.4C160.294 52.8933 160.228 52.3067 160.174 51.64C160.148 50.9733 160.134 50.12 160.134 49.08V45.64C160.134 43.56 161.028 42.52 162.814 42.52C164.761 42.52 165.734 43.56 165.734 45.64V62.56C165.734 66.16 164.934 68.8533 163.334 70.64C161.734 72.4267 159.494 73.32 156.614 73.32ZM156.334 68.52C157.454 68.52 158.321 68.12 158.934 67.32C159.574 66.52 159.894 65.0267 159.894 62.84C159.894 61.3733 159.748 60.2667 159.454 59.52C159.188 58.7467 158.788 58.2133 158.254 57.92C157.721 57.6267 157.081 57.48 156.334 57.48C155.588 57.48 154.948 57.6267 154.414 57.92C153.881 58.2133 153.468 58.7467 153.174 59.52C152.908 60.2667 152.774 61.3733 152.774 62.84C152.774 65.0267 153.081 66.52 153.694 67.32C154.334 68.12 155.214 68.52 156.334 68.52Z" fill="white"/>
<path d="M177.366 73.32C174.699 73.32 172.619 72.7067 171.126 71.48C169.632 70.2267 168.886 68.6133 168.886 66.64C168.886 64.32 169.859 62.64 171.806 61.6C173.779 60.56 176.659 60.2 180.446 60.52C180.259 59.2933 179.872 58.4667 179.286 58.04C178.699 57.5867 177.992 57.36 177.166 57.36C176.499 57.36 175.939 57.4 175.486 57.48C175.059 57.5333 174.659 57.6 174.286 57.68C173.912 57.76 173.459 57.8 172.926 57.8C172.206 57.8 171.632 57.68 171.206 57.44C170.779 57.1733 170.566 56.6533 170.566 55.88C170.566 54.7867 171.032 53.9867 171.966 53.48C172.926 52.9467 174.432 52.68 176.486 52.68C179.739 52.68 182.152 53.6133 183.726 55.48C185.299 57.32 186.086 59.7867 186.086 62.88C186.086 66.4533 185.432 69.0933 184.126 70.8C182.846 72.48 180.592 73.32 177.366 73.32ZM174.646 66.64C174.646 68.16 175.672 68.92 177.726 68.92C178.392 68.92 178.912 68.8 179.286 68.56C179.659 68.32 179.926 67.84 180.086 67.12C180.272 66.4 180.406 65.32 180.486 63.88C180.352 64.0133 180.179 64.1067 179.966 64.16C179.752 64.2133 179.539 64.24 179.326 64.24C177.566 64.24 176.339 64.4133 175.646 64.76C174.979 65.08 174.646 65.7067 174.646 66.64Z" fill="white"/>
<path d="M192.812 73.32C190.892 73.32 189.932 72.4133 189.932 70.6V55.44C189.932 53.6 190.892 52.68 192.812 52.68C193.772 52.68 194.466 52.8933 194.892 53.32C195.319 53.72 195.532 54.3867 195.532 55.32C196.012 54.44 196.692 53.7867 197.572 53.36C198.479 52.9067 199.532 52.68 200.732 52.68C203.026 52.68 204.172 53.68 204.172 55.68C204.172 56.4267 203.892 56.9867 203.332 57.36C202.772 57.7333 201.852 57.92 200.572 57.92C199.319 57.92 198.332 58.04 197.612 58.28C196.892 58.4933 196.386 58.9067 196.092 59.52C195.826 60.1067 195.692 60.96 195.692 62.08V70.6C195.692 72.4133 194.732 73.32 192.812 73.32Z" fill="white"/>
<path d="M208.322 49.24C207.335 49.24 206.509 48.92 205.842 48.28C205.175 47.64 204.842 46.8533 204.842 45.92C204.842 44.9333 205.175 44.12 205.842 43.48C206.509 42.84 207.335 42.52 208.322 42.52C209.335 42.52 210.162 42.84 210.802 43.48C211.469 44.12 211.802 44.9333 211.802 45.92C211.802 46.8533 211.469 47.64 210.802 48.28C210.162 48.92 209.335 49.24 208.322 49.24ZM211.202 70.64C211.202 72.4267 210.269 73.32 208.402 73.32C207.495 73.32 206.775 73.1067 206.242 72.68C205.709 72.2267 205.442 71.5467 205.442 70.64V55.4C205.442 54.5467 205.655 53.88 206.082 53.4C206.535 52.92 207.282 52.68 208.322 52.68C209.362 52.68 210.095 52.92 210.522 53.4C210.975 53.88 211.202 54.5467 211.202 55.4V70.64Z" fill="white"/>
<path d="M224.265 73.32C221.412 73.32 219.158 72.5067 217.505 70.88C215.852 69.2533 215.025 66.6267 215.025 63C215.025 59.3467 215.852 56.72 217.505 55.12C219.158 53.4933 221.412 52.68 224.265 52.68C227.118 52.68 229.372 53.4933 231.025 55.12C232.678 56.72 233.505 59.3467 233.505 63C233.505 66.6267 232.678 69.2533 231.025 70.88C229.372 72.5067 227.118 73.32 224.265 73.32ZM224.265 68.52C225.012 68.52 225.638 68.3733 226.145 68.08C226.652 67.76 227.038 67.2 227.305 66.4C227.598 65.6 227.745 64.4667 227.745 63C227.745 61.5333 227.598 60.4 227.305 59.6C227.038 58.8 226.652 58.2533 226.145 57.96C225.638 57.64 225.012 57.48 224.265 57.48C223.545 57.48 222.918 57.64 222.385 57.96C221.878 58.2533 221.478 58.8 221.185 59.6C220.918 60.4 220.785 61.5333 220.785 63C220.785 64.4667 220.918 65.6 221.185 66.4C221.478 67.2 221.878 67.76 222.385 68.08C222.918 68.3733 223.545 68.52 224.265 68.52Z" fill="white"/>
<path d="M254.505 73.32C251.572 73.32 249.252 72.3867 247.545 70.52C245.865 68.6533 245.025 65.92 245.025 62.32C245.025 59.92 245.372 58.0133 246.065 56.6C246.758 55.1867 247.718 54.1867 248.945 53.6C250.198 52.9867 251.612 52.68 253.185 52.68C254.598 52.68 255.745 52.8533 256.625 53.2C257.505 53.5467 258.198 54.1333 258.705 54.96C258.518 54.4 258.372 53.88 258.265 53.4C258.185 52.8933 258.118 52.3067 258.065 51.64C258.038 50.9733 258.025 50.12 258.025 49.08V45.64C258.025 43.56 258.918 42.52 260.705 42.52C262.652 42.52 263.625 43.56 263.625 45.64V62.56C263.625 66.16 262.825 68.8533 261.225 70.64C259.625 72.4267 257.385 73.32 254.505 73.32ZM254.225 68.52C255.345 68.52 256.212 68.12 256.825 67.32C257.465 66.52 257.785 65.0267 257.785 62.84C257.785 61.3733 257.638 60.2667 257.345 59.52C257.078 58.7467 256.678 58.2133 256.145 57.92C255.612 57.6267 254.972 57.48 254.225 57.48C253.478 57.48 252.838 57.6267 252.305 57.92C251.772 58.2133 251.358 58.7467 251.065 59.52C250.798 60.2667 250.665 61.3733 250.665 62.84C250.665 65.0267 250.972 66.52 251.585 67.32C252.225 68.12 253.105 68.52 254.225 68.52Z" fill="white"/>
<path d="M277.808 73.32C275.141 73.32 273.048 72.88 271.528 72C270.034 71.12 268.968 69.9067 268.328 68.36C267.714 66.8133 267.408 65.04 267.408 63.04C267.408 59.36 268.221 56.72 269.848 55.12C271.474 53.4933 273.661 52.68 276.408 52.68C278.061 52.68 279.528 52.96 280.808 53.52C282.088 54.08 283.088 54.88 283.808 55.92C284.528 56.9333 284.888 58.1733 284.888 59.64C284.888 63.9067 281.848 66.04 275.768 66.04H273.448C273.661 66.8667 274.008 67.52 274.488 68C274.994 68.4533 275.874 68.68 277.128 68.68C277.821 68.68 278.381 68.64 278.808 68.56C279.234 68.48 279.634 68.4 280.008 68.32C280.408 68.24 280.861 68.2 281.368 68.2C282.088 68.2 282.661 68.3333 283.088 68.6C283.514 68.84 283.728 69.3467 283.728 70.12C283.728 71.2133 283.248 72.0267 282.288 72.56C281.354 73.0667 279.861 73.32 277.808 73.32ZM273.168 63.08C273.381 62.7867 273.621 62.6 273.888 62.52C274.154 62.4133 274.568 62.36 275.128 62.36C276.701 62.36 277.781 62.2133 278.368 61.92C278.981 61.6 279.288 61.04 279.288 60.24C279.288 59.2267 279.008 58.4533 278.448 57.92C277.888 57.36 277.181 57.08 276.328 57.08C275.341 57.08 274.568 57.4933 274.008 58.32C273.448 59.1467 273.168 60.7333 273.168 63.08Z" fill="white"/>
<path d="M306.439 73.32C303.559 73.32 301.319 72.4267 299.719 70.64C298.119 68.8533 297.319 66.16 297.319 62.56V45.64C297.319 43.56 298.292 42.52 300.239 42.52C302.025 42.52 302.919 43.56 302.919 45.64V49.08C302.919 50.12 302.892 50.9733 302.839 51.64C302.812 52.3067 302.745 52.8933 302.639 53.4C302.559 53.88 302.425 54.4 302.239 54.96C302.745 54.1333 303.439 53.5467 304.319 53.2C305.225 52.8533 306.372 52.68 307.759 52.68C309.359 52.68 310.772 52.9867 311.999 53.6C313.225 54.1867 314.185 55.1867 314.879 56.6C315.572 58.0133 315.919 59.92 315.919 62.32C315.919 65.92 315.065 68.6533 313.359 70.52C311.679 72.3867 309.372 73.32 306.439 73.32ZM306.719 68.52C307.839 68.52 308.705 68.12 309.319 67.32C309.959 66.52 310.279 65.0267 310.279 62.84C310.279 61.3733 310.132 60.2667 309.839 59.52C309.572 58.7467 309.172 58.2133 308.639 57.92C308.105 57.6267 307.465 57.48 306.719 57.48C305.972 57.48 305.332 57.6267 304.799 57.92C304.265 58.2133 303.852 58.7467 303.559 59.52C303.292 60.2667 303.159 61.3733 303.159 62.84C303.159 65.0267 303.465 66.52 304.079 67.32C304.719 68.12 305.599 68.52 306.719 68.52Z" fill="white"/>
<path d="M322.658 49.24C321.671 49.24 320.844 48.92 320.178 48.28C319.511 47.64 319.178 46.8533 319.178 45.92C319.178 44.9333 319.511 44.12 320.178 43.48C320.844 42.84 321.671 42.52 322.658 42.52C323.671 42.52 324.498 42.84 325.138 43.48C325.804 44.12 326.138 44.9333 326.138 45.92C326.138 46.8533 325.804 47.64 325.138 48.28C324.498 48.92 323.671 49.24 322.658 49.24ZM325.538 70.64C325.538 72.4267 324.604 73.32 322.738 73.32C321.831 73.32 321.111 73.1067 320.578 72.68C320.044 72.2267 319.778 71.5467 319.778 70.64V55.4C319.778 54.5467 319.991 53.88 320.418 53.4C320.871 52.92 321.618 52.68 322.658 52.68C323.698 52.68 324.431 52.92 324.858 53.4C325.311 53.88 325.538 54.5467 325.538 55.4V70.64Z" fill="white"/>
<path d="M339.761 73.32C337.094 73.32 335.001 72.88 333.481 72C331.988 71.12 330.921 69.9067 330.281 68.36C329.668 66.8133 329.361 65.04 329.361 63.04C329.361 59.36 330.174 56.72 331.801 55.12C333.428 53.4933 335.614 52.68 338.361 52.68C340.014 52.68 341.481 52.96 342.761 53.52C344.041 54.08 345.041 54.88 345.761 55.92C346.481 56.9333 346.841 58.1733 346.841 59.64C346.841 63.9067 343.801 66.04 337.721 66.04H335.401C335.614 66.8667 335.961 67.52 336.441 68C336.948 68.4533 337.828 68.68 339.081 68.68C339.774 68.68 340.334 68.64 340.761 68.56C341.188 68.48 341.588 68.4 341.961 68.32C342.361 68.24 342.814 68.2 343.321 68.2C344.041 68.2 344.614 68.3333 345.041 68.6C345.468 68.84 345.681 69.3467 345.681 70.12C345.681 71.2133 345.201 72.0267 344.241 72.56C343.308 73.0667 341.814 73.32 339.761 73.32ZM335.121 63.08C335.334 62.7867 335.574 62.6 335.841 62.52C336.108 62.4133 336.521 62.36 337.081 62.36C338.654 62.36 339.734 62.2133 340.321 61.92C340.934 61.6 341.241 61.04 341.241 60.24C341.241 59.2267 340.961 58.4533 340.401 57.92C339.841 57.36 339.134 57.08 338.281 57.08C337.294 57.08 336.521 57.4933 335.961 58.32C335.401 59.1467 335.121 60.7333 335.121 63.08Z" fill="white"/>
<path d="M353.203 73.32C351.283 73.32 350.323 72.4133 350.323 70.6V61C350.323 58.44 351.136 56.4133 352.763 54.92C354.416 53.4267 356.589 52.68 359.283 52.68C361.976 52.68 364.136 53.4267 365.763 54.92C367.416 56.4133 368.243 58.44 368.243 61V70.6C368.243 72.4133 367.283 73.32 365.363 73.32C363.443 73.32 362.483 72.4133 362.483 70.6V61.32C362.483 60.0667 362.203 59.12 361.643 58.48C361.083 57.8133 360.296 57.48 359.283 57.48C358.269 57.48 357.483 57.8133 356.923 58.48C356.363 59.12 356.083 60.0667 356.083 61.32V70.6C356.083 72.4133 355.123 73.32 353.203 73.32Z" fill="white"/>
<path d="M382.495 73.32C379.829 73.32 377.735 72.88 376.215 72C374.722 71.12 373.655 69.9067 373.015 68.36C372.402 66.8133 372.095 65.04 372.095 63.04C372.095 59.36 372.909 56.72 374.535 55.12C376.162 53.4933 378.349 52.68 381.095 52.68C382.749 52.68 384.215 52.96 385.495 53.52C386.775 54.08 387.775 54.88 388.495 55.92C389.215 56.9333 389.575 58.1733 389.575 59.64C389.575 63.9067 386.535 66.04 380.455 66.04H378.135C378.349 66.8667 378.695 67.52 379.175 68C379.682 68.4533 380.562 68.68 381.815 68.68C382.509 68.68 383.069 68.64 383.495 68.56C383.922 68.48 384.322 68.4 384.695 68.32C385.095 68.24 385.549 68.2 386.055 68.2C386.775 68.2 387.349 68.3333 387.775 68.6C388.202 68.84 388.415 69.3467 388.415 70.12C388.415 71.2133 387.935 72.0267 386.975 72.56C386.042 73.0667 384.549 73.32 382.495 73.32ZM377.855 63.08C378.069 62.7867 378.309 62.6 378.575 62.52C378.842 62.4133 379.255 62.36 379.815 62.36C381.389 62.36 382.469 62.2133 383.055 61.92C383.669 61.6 383.975 61.04 383.975 60.24C383.975 59.2267 383.695 58.4533 383.135 57.92C382.575 57.36 381.869 57.08 381.015 57.08C380.029 57.08 379.255 57.4933 378.695 58.32C378.135 59.1467 377.855 60.7333 377.855 63.08Z" fill="white"/>
<path d="M400.009 73.32C394.995 73.32 392.489 72.2133 392.489 70C392.489 69.3067 392.675 68.76 393.049 68.36C393.422 67.96 393.915 67.76 394.529 67.76C394.795 67.76 395.049 67.8 395.289 67.88C395.555 67.9333 396.062 68.08 396.809 68.32C397.129 68.4267 397.555 68.5333 398.089 68.64C398.622 68.7467 399.142 68.8 399.649 68.8C400.609 68.8 401.289 68.68 401.689 68.44C402.089 68.2 402.289 67.8 402.289 67.24C402.289 66.7867 402.182 66.44 401.969 66.2C401.755 65.9333 401.302 65.68 400.609 65.44C399.915 65.2 398.835 64.8667 397.369 64.44C396.035 64.0667 394.955 63.4 394.129 62.44C393.329 61.4533 392.929 60.24 392.929 58.8C392.929 56.7733 393.662 55.2267 395.129 54.16C396.595 53.0933 398.609 52.56 401.169 52.56C403.089 52.56 404.595 52.8267 405.689 53.36C406.782 53.8933 407.329 54.6667 407.329 55.68C407.329 56.32 407.142 56.8533 406.769 57.28C406.395 57.7067 405.889 57.92 405.249 57.92C404.982 57.92 404.662 57.88 404.289 57.8C403.942 57.72 403.515 57.6133 403.009 57.48C402.635 57.3467 402.235 57.24 401.809 57.16C401.409 57.08 400.982 57.04 400.529 57.04C399.249 57.04 398.609 57.4933 398.609 58.4C398.609 58.9333 398.862 59.3867 399.369 59.76C399.875 60.1067 400.849 60.4933 402.289 60.92C404.262 61.5067 405.715 62.2933 406.649 63.28C407.582 64.24 408.049 65.52 408.049 67.12C408.049 68.9867 407.329 70.4933 405.889 71.64C404.475 72.76 402.515 73.32 400.009 73.32Z" fill="white"/>
<path d="M420.575 73.32C418.095 73.32 416.255 72.7333 415.055 71.56C413.881 70.3867 413.295 68.5867 413.295 66.16V57.84H412.255C410.441 57.84 409.535 57.0267 409.535 55.4C409.535 53.8 410.441 53 412.255 53H413.295V48.68C413.295 47.8 413.561 47.08 414.095 46.52C414.655 45.96 415.375 45.68 416.255 45.68C417.108 45.68 417.788 45.9467 418.295 46.48C418.801 46.9867 419.055 47.6933 419.055 48.6V50.56C419.055 51.5467 418.895 52.36 418.575 53H422.375C424.188 53 425.095 53.8 425.095 55.4C425.095 57.0267 424.188 57.84 422.375 57.84H419.055V66.28C419.055 67.08 419.148 67.6533 419.335 68C419.521 68.32 419.828 68.48 420.255 68.48C420.815 68.48 421.228 68.44 421.495 68.36C421.788 68.2533 422.148 68.2 422.575 68.2C423.295 68.2 423.868 68.3333 424.295 68.6C424.721 68.84 424.935 69.3467 424.935 70.12C424.935 71.2133 424.588 72.0267 423.895 72.56C423.201 73.0667 422.095 73.32 420.575 73.32Z" fill="white"/>
<path d="M435.842 73.32C433.176 73.32 431.096 72.7067 429.602 71.48C428.109 70.2267 427.362 68.6133 427.362 66.64C427.362 64.32 428.336 62.64 430.282 61.6C432.256 60.56 435.136 60.2 438.922 60.52C438.736 59.2933 438.349 58.4667 437.762 58.04C437.176 57.5867 436.469 57.36 435.642 57.36C434.976 57.36 434.416 57.4 433.962 57.48C433.536 57.5333 433.136 57.6 432.762 57.68C432.389 57.76 431.936 57.8 431.402 57.8C430.682 57.8 430.109 57.68 429.682 57.44C429.256 57.1733 429.042 56.6533 429.042 55.88C429.042 54.7867 429.509 53.9867 430.442 53.48C431.402 52.9467 432.909 52.68 434.962 52.68C438.216 52.68 440.629 53.6133 442.202 55.48C443.776 57.32 444.562 59.7867 444.562 62.88C444.562 66.4533 443.909 69.0933 442.602 70.8C441.322 72.48 439.069 73.32 435.842 73.32ZM433.122 66.64C433.122 68.16 434.149 68.92 436.202 68.92C436.869 68.92 437.389 68.8 437.762 68.56C438.136 68.32 438.402 67.84 438.562 67.12C438.749 66.4 438.882 65.32 438.962 63.88C438.829 64.0133 438.656 64.1067 438.442 64.16C438.229 64.2133 438.016 64.24 437.802 64.24C436.042 64.24 434.816 64.4133 434.122 64.76C433.456 65.08 433.122 65.7067 433.122 66.64Z" fill="white"/>
<path d="M451.289 73.32C449.369 73.32 448.409 72.4133 448.409 70.6V55.44C448.409 53.6 449.369 52.68 451.289 52.68C452.249 52.68 452.942 52.8933 453.369 53.32C453.795 53.72 454.009 54.3867 454.009 55.32C454.489 54.44 455.169 53.7867 456.049 53.36C456.955 52.9067 458.009 52.68 459.209 52.68C461.502 52.68 462.649 53.68 462.649 55.68C462.649 56.4267 462.369 56.9867 461.809 57.36C461.249 57.7333 460.329 57.92 459.049 57.92C457.795 57.92 456.809 58.04 456.089 58.28C455.369 58.4933 454.862 58.9067 454.569 59.52C454.302 60.1067 454.169 60.96 454.169 62.08V70.6C454.169 72.4133 453.209 73.32 451.289 73.32Z" fill="white"/>
<path d="M42.7459 130V106.88H49.4779C52.0619 106.88 54.0566 107.696 55.4619 109.328C56.8673 110.96 57.5699 113.125 57.5699 115.822V121.024C57.5699 123.744 56.8673 125.92 55.4619 127.552C54.0566 129.184 52.0619 130 49.4779 130H42.7459ZM49.4779 108.886H44.9559V127.994H49.4779C51.3593 127.994 52.7873 127.382 53.7619 126.158C54.7593 124.911 55.2579 123.2 55.2579 121.024V115.822C55.2579 113.646 54.7593 111.946 53.7619 110.722C52.7873 109.498 51.3593 108.886 49.4779 108.886Z" fill="black"/>
<path d="M123.616 127.994V130H111.41V106.88H113.62V127.994H123.616Z" fill="black"/>
<path d="M178.447 106.88L185.825 124.866L193.339 106.88H195.991V130H193.781V119.392L194.019 110.076L186.845 127.28H184.635L177.597 110.008L177.835 119.392V130H175.625V106.88H178.447Z" fill="black"/>
<path d="M253.652 106.88L261.03 124.866L268.544 106.88H271.196V130H268.986V119.392L269.224 110.076L262.05 127.28H259.84L252.802 110.008L253.04 119.392V130H250.83V106.88H253.652Z" fill="black"/>
<path d="M323.077 130.17V128.062C324.936 128.062 326.296 127.677 327.157 126.906C328.018 126.113 328.449 124.741 328.449 122.792V106.88H330.659V122.792C330.659 124.197 330.432 125.467 329.979 126.6C329.548 127.711 328.778 128.583 327.667 129.218C326.579 129.853 325.049 130.17 323.077 130.17Z" fill="black"/>
<path d="M406.947 106.88L399.535 130H397.324L389.879 106.88H392.122L395.897 118.644L398.514 126.94L404.839 106.88H406.947Z" fill="black"/>
<path d="M471.005 128.402C472.524 128.402 473.703 128.051 474.541 127.348C475.38 126.623 475.799 125.58 475.799 124.22C475.799 123.087 475.493 122.112 474.881 121.296C474.292 120.457 473.329 119.857 471.991 119.494L469.271 118.746C467.481 118.247 466.189 117.477 465.395 116.434C464.602 115.391 464.205 114.133 464.205 112.66C464.205 111.572 464.421 110.563 464.851 109.634C465.282 108.705 465.985 107.957 466.959 107.39C467.957 106.823 469.305 106.54 471.005 106.54C471.98 106.54 473.011 106.665 474.099 106.914C475.21 107.141 476.309 107.515 477.397 108.036L476.649 109.94C475.561 109.419 474.553 109.045 473.623 108.818C472.694 108.591 471.821 108.478 471.005 108.478C469.555 108.478 468.433 108.795 467.639 109.43C466.846 110.065 466.449 111.085 466.449 112.49C466.449 113.465 466.71 114.315 467.231 115.04C467.753 115.743 468.705 116.287 470.087 116.672L472.807 117.42C474.553 117.896 475.856 118.689 476.717 119.8C477.601 120.911 478.043 122.293 478.043 123.948C478.043 125.829 477.488 127.371 476.377 128.572C475.289 129.751 473.499 130.34 471.005 130.34C469.94 130.34 468.807 130.215 467.605 129.966C466.404 129.717 465.203 129.32 464.001 128.776L464.715 126.906C465.871 127.45 466.948 127.835 467.945 128.062C468.943 128.289 469.963 128.402 471.005 128.402Z" fill="black"/>
<path d="M48.45 207H35.768V205.402C35.768 202.795 36.21 200.778 37.094 199.35C38.0007 197.899 39.1227 196.823 40.46 196.12L42.602 194.998C43.3727 194.59 44.0413 194.182 44.608 193.774C45.1747 193.366 45.6053 192.89 45.9 192.346C46.2173 191.779 46.376 191.077 46.376 190.238V189.66C46.376 188.119 45.968 187.042 45.152 186.43C44.336 185.795 43.2027 185.478 41.752 185.478C40.9813 185.478 40.1313 185.569 39.202 185.75C38.2953 185.931 37.3433 186.249 36.346 186.702L35.598 184.934C36.6407 184.435 37.6947 184.084 38.76 183.88C39.8253 183.653 40.8227 183.54 41.752 183.54C44.1093 183.54 45.8207 184.084 46.886 185.172C47.974 186.237 48.518 187.733 48.518 189.66V190.238C48.518 191.439 48.2913 192.437 47.838 193.23C47.3847 194.023 46.7953 194.692 46.07 195.236C45.3447 195.757 44.5627 196.233 43.724 196.664L41.582 197.786C40.3353 198.443 39.4173 199.361 38.828 200.54C38.2613 201.719 37.9553 203.226 37.91 205.062H48.45V207Z" fill="black"/>
<path d="M66.652 198.092C66.652 201.243 65.9493 203.577 64.544 205.096C63.1613 206.592 61.2913 207.34 58.934 207.34C58.0953 207.34 57.1773 207.238 56.18 207.034C55.1826 206.853 54.1513 206.513 53.086 206.014L53.834 204.246C54.8086 204.677 55.7153 204.983 56.554 205.164C57.4153 205.323 58.186 205.402 58.866 205.402C60.6113 205.402 61.994 204.858 63.014 203.77C64.0566 202.659 64.578 200.767 64.578 198.092V195.61C63.7393 196.313 62.8326 196.902 61.858 197.378C60.8833 197.854 59.818 198.092 58.662 198.092C56.69 198.092 55.1486 197.491 54.038 196.29C52.95 195.066 52.406 193.457 52.406 191.462V190.204C52.406 188.187 53.0293 186.577 54.276 185.376C55.5226 184.152 57.2226 183.54 59.376 183.54C61.756 183.54 63.558 184.356 64.782 185.988C66.0286 187.597 66.652 189.898 66.652 192.89V198.092ZM54.48 191.462C54.48 192.913 54.854 194.057 55.602 194.896C56.3726 195.735 57.4493 196.154 58.832 196.154C59.8973 196.154 60.9173 195.905 61.892 195.406C62.8893 194.907 63.7846 194.273 64.578 193.502V192.89C64.578 187.949 62.844 185.478 59.376 185.478C57.8573 185.478 56.656 185.897 55.772 186.736C54.9106 187.575 54.48 188.731 54.48 190.204V191.462Z" fill="black"/>
<path d="M115.32 201.118C115.32 203.045 114.731 204.563 113.552 205.674C112.396 206.785 110.594 207.34 108.146 207.34C107.149 207.34 106.095 207.227 104.984 207C103.896 206.773 102.82 206.411 101.754 205.912L102.434 204.144C103.5 204.643 104.497 204.983 105.426 205.164C106.378 205.323 107.285 205.402 108.146 205.402C109.665 205.402 110.866 205.073 111.75 204.416C112.634 203.759 113.076 202.659 113.076 201.118V200.54C113.076 199.225 112.714 198.183 111.988 197.412C111.263 196.641 110.13 196.256 108.588 196.256H105.324V194.386H108.588C110.062 194.386 111.138 194.012 111.818 193.264C112.498 192.516 112.838 191.507 112.838 190.238V189.762C112.838 188.221 112.419 187.121 111.58 186.464C110.764 185.807 109.654 185.478 108.248 185.478C107.455 185.478 106.616 185.569 105.732 185.75C104.871 185.931 103.942 186.249 102.944 186.702L102.196 184.934C103.216 184.458 104.236 184.107 105.256 183.88C106.299 183.653 107.296 183.54 108.248 183.54C110.583 183.54 112.306 184.095 113.416 185.206C114.527 186.317 115.082 187.835 115.082 189.762V190.238C115.082 191.417 114.81 192.448 114.266 193.332C113.722 194.193 112.952 194.851 111.954 195.304C112.997 195.757 113.813 196.437 114.402 197.344C115.014 198.228 115.32 199.293 115.32 200.54V201.118Z" fill="black"/>
<path d="M135.893 192.822V198.024C135.893 201.175 135.201 203.521 133.819 205.062C132.459 206.581 130.611 207.34 128.277 207.34C125.942 207.34 124.083 206.581 122.701 205.062C121.341 203.521 120.661 201.175 120.661 198.024V192.822C120.661 189.671 121.352 187.337 122.735 185.818C124.117 184.299 125.965 183.54 128.277 183.54C130.589 183.54 132.436 184.299 133.819 185.818C135.201 187.337 135.893 189.671 135.893 192.822ZM133.649 192.822C133.649 190.17 133.15 188.289 132.153 187.178C131.178 186.045 129.886 185.478 128.277 185.478C126.69 185.478 125.398 186.045 124.401 187.178C123.403 188.289 122.905 190.17 122.905 192.822V198.024C122.905 200.653 123.403 202.546 124.401 203.702C125.398 204.835 126.69 205.402 128.277 205.402C129.886 205.402 131.178 204.835 132.153 203.702C133.15 202.546 133.649 200.653 133.649 198.024V192.822Z" fill="black"/>
<path d="M184.516 201.118C184.516 203.045 183.926 204.563 182.748 205.674C181.592 206.785 179.79 207.34 177.342 207.34C176.344 207.34 175.29 207.227 174.18 207C173.092 206.773 172.015 206.411 170.95 205.912L171.63 204.144C172.695 204.643 173.692 204.983 174.622 205.164C175.574 205.323 176.48 205.402 177.342 205.402C178.86 205.402 180.062 205.073 180.946 204.416C181.83 203.759 182.272 202.659 182.272 201.118V200.54C182.272 199.225 181.909 198.183 181.184 197.412C180.458 196.641 179.325 196.256 177.784 196.256H174.52V194.386H177.784C179.257 194.386 180.334 194.012 181.014 193.264C181.694 192.516 182.034 191.507 182.034 190.238V189.762C182.034 188.221 181.614 187.121 180.776 186.464C179.96 185.807 178.849 185.478 177.444 185.478C176.65 185.478 175.812 185.569 174.928 185.75C174.066 185.931 173.137 186.249 172.14 186.702L171.392 184.934C172.412 184.458 173.432 184.107 174.452 183.88C175.494 183.653 176.492 183.54 177.444 183.54C179.778 183.54 181.501 184.095 182.612 185.206C183.722 186.317 184.278 187.835 184.278 189.762V190.238C184.278 191.417 184.006 192.448 183.462 193.332C182.918 194.193 182.147 194.851 181.15 195.304C182.192 195.757 183.008 196.437 183.598 197.344C184.21 198.228 184.516 199.293 184.516 200.54V201.118Z" fill="black"/>
<path d="M187.85 187.008L193.12 183.88H195.33V207H193.188V186.09L188.836 188.64L187.85 187.008Z" fill="black"/>
<path d="M247.118 187.008L252.388 183.88H254.598V207H252.456V186.09L248.104 188.64L247.118 187.008Z" fill="black"/>
<path d="M335.657 207H322.975V205.402C322.975 202.795 323.417 200.778 324.301 199.35C325.208 197.899 326.33 196.823 327.667 196.12L329.809 194.998C330.58 194.59 331.248 194.182 331.815 193.774C332.382 193.366 332.812 192.89 333.107 192.346C333.424 191.779 333.583 191.077 333.583 190.238V189.66C333.583 188.119 333.175 187.042 332.359 186.43C331.543 185.795 330.41 185.478 328.959 185.478C328.188 185.478 327.338 185.569 326.409 185.75C325.502 185.931 324.55 186.249 323.553 186.702L322.805 184.934C323.848 184.435 324.902 184.084 325.967 183.88C327.032 183.653 328.03 183.54 328.959 183.54C331.316 183.54 333.028 184.084 334.093 185.172C335.181 186.237 335.725 187.733 335.725 189.66V190.238C335.725 191.439 335.498 192.437 335.045 193.23C334.592 194.023 334.002 194.692 333.277 195.236C332.552 195.757 331.77 196.233 330.931 196.664L328.789 197.786C327.542 198.443 326.624 199.361 326.035 200.54C325.468 201.719 325.162 203.226 325.117 205.062H335.657V207Z" fill="black"/>
<path d="M406.977 201.118C406.977 203.045 406.387 204.563 405.209 205.674C404.053 206.785 402.251 207.34 399.803 207.34C398.805 207.34 397.751 207.227 396.641 207C395.553 206.773 394.476 206.411 393.411 205.912L394.091 204.144C395.156 204.643 396.153 204.983 397.083 205.164C398.035 205.323 398.941 205.402 399.803 205.402C401.321 205.402 402.523 205.073 403.407 204.416C404.291 203.759 404.733 202.659 404.733 201.118V200.54C404.733 199.225 404.37 198.183 403.645 197.412C402.919 196.641 401.786 196.256 400.245 196.256H396.981V194.386H400.245C401.718 194.386 402.795 194.012 403.475 193.264C404.155 192.516 404.495 191.507 404.495 190.238V189.762C404.495 188.221 404.075 187.121 403.237 186.464C402.421 185.807 401.31 185.478 399.905 185.478C399.111 185.478 398.273 185.569 397.389 185.75C396.527 185.931 395.598 186.249 394.601 186.702L393.853 184.934C394.873 184.458 395.893 184.107 396.913 183.88C397.955 183.653 398.953 183.54 399.905 183.54C402.239 183.54 403.962 184.095 405.073 185.206C406.183 186.317 406.739 187.835 406.739 189.762V190.238C406.739 191.417 406.467 192.448 405.923 193.332C405.379 194.193 404.608 194.851 403.611 195.304C404.653 195.757 405.469 196.437 406.059 197.344C406.671 198.228 406.977 199.293 406.977 200.54V201.118Z" fill="black"/>
<path d="M480.122 201.22H477.504V207H475.465V201.22H465.536V199.656C467.418 196.8 469.05 194.114 470.432 191.598C471.815 189.059 472.994 186.487 473.969 183.88H476.212C475.192 186.464 474.025 188.98 472.711 191.428C471.396 193.876 469.798 196.505 467.917 199.316H475.465V194.624H477.504V199.316H480.122V201.22Z" fill="black"/>
<path d="M54.45 501H41.768V499.402C41.768 496.795 42.21 494.778 43.094 493.35C44.0007 491.899 45.1227 490.823 46.46 490.12L48.602 488.998C49.3727 488.59 50.0413 488.182 50.608 487.774C51.1747 487.366 51.6053 486.89 51.9 486.346C52.2173 485.779 52.376 485.077 52.376 484.238V483.66C52.376 482.119 51.968 481.042 51.152 480.43C50.336 479.795 49.2027 479.478 47.752 479.478C46.9813 479.478 46.1313 479.569 45.202 479.75C44.2953 479.931 43.3433 480.249 42.346 480.702L41.598 478.934C42.6407 478.435 43.6947 478.084 44.76 477.88C45.8253 477.653 46.8227 477.54 47.752 477.54C50.1093 477.54 51.8207 478.084 52.886 479.172C53.974 480.237 54.518 481.733 54.518 483.66V484.238C54.518 485.439 54.2913 486.437 53.838 487.23C53.3847 488.023 52.7953 488.692 52.07 489.236C51.3447 489.757 50.5627 490.233 49.724 490.664L47.582 491.786C46.3353 492.443 45.4173 493.361 44.828 494.54C44.2613 495.719 43.9553 497.226 43.91 499.062H54.45V501Z" fill="black"/>
<path d="M73.672 494.676C73.672 496.693 73.0486 498.314 71.802 499.538C70.5553 500.739 68.8553 501.34 66.702 501.34C64.3219 501.34 62.5086 500.535 61.262 498.926C60.038 497.294 59.426 494.982 59.426 491.99V486.788C59.426 483.637 60.1173 481.314 61.5 479.818C62.9053 478.299 64.7866 477.54 67.144 477.54C67.9826 477.54 68.9006 477.642 69.898 477.846C70.918 478.027 71.9493 478.367 72.992 478.866L72.244 480.634C71.2693 480.203 70.3513 479.909 69.49 479.75C68.6513 479.569 67.892 479.478 67.212 479.478C65.4666 479.478 64.0726 480.022 63.03 481.11C62.01 482.198 61.5 484.091 61.5 486.788V489.27C62.3386 488.545 63.2453 487.955 64.22 487.502C65.1946 487.026 66.26 486.788 67.416 486.788C69.388 486.788 70.918 487.389 72.006 488.59C73.1166 489.791 73.672 491.401 73.672 493.418V494.676ZM61.5 491.99C61.5 496.931 63.2339 499.402 66.702 499.402C68.2433 499.402 69.4446 498.983 70.306 498.144C71.1673 497.305 71.598 496.149 71.598 494.676V493.418C71.598 491.945 71.2126 490.8 70.442 489.984C69.694 489.145 68.6286 488.726 67.246 488.726C66.1806 488.726 65.1493 488.975 64.152 489.474C63.1773 489.95 62.2933 490.585 61.5 491.378V491.99Z" fill="black"/>
<path d="M129.19 501H116.508V499.402C116.508 496.795 116.95 494.778 117.834 493.35C118.741 491.899 119.863 490.823 121.2 490.12L123.342 488.998C124.113 488.59 124.782 488.182 125.348 487.774C125.915 487.366 126.346 486.89 126.64 486.346C126.958 485.779 127.116 485.077 127.116 484.238V483.66C127.116 482.119 126.708 481.042 125.892 480.43C125.076 479.795 123.943 479.478 122.492 479.478C121.722 479.478 120.872 479.569 119.942 479.75C119.036 479.931 118.084 480.249 117.086 480.702L116.338 478.934C117.381 478.435 118.435 478.084 119.5 477.88C120.566 477.653 121.563 477.54 122.492 477.54C124.85 477.54 126.561 478.084 127.626 479.172C128.714 480.237 129.258 481.733 129.258 483.66V484.238C129.258 485.439 129.032 486.437 128.578 487.23C128.125 488.023 127.536 488.692 126.81 489.236C126.085 489.757 125.303 490.233 124.464 490.664L122.322 491.786C121.076 492.443 120.158 493.361 119.568 494.54C119.002 495.719 118.696 497.226 118.65 499.062H129.19V501Z" fill="black"/>
<path d="M145.896 479.478C144.106 483.082 142.587 486.675 141.34 490.256C140.094 493.837 139.176 497.419 138.586 501H136.376C136.966 497.464 137.872 493.939 139.096 490.426C140.343 486.89 141.85 483.354 143.618 479.818H132.398V477.88H145.896V479.478Z" fill="black"/>
<path d="M193.139 501H180.457V499.402C180.457 496.795 180.899 494.778 181.783 493.35C182.69 491.899 183.812 490.823 185.149 490.12L187.291 488.998C188.062 488.59 188.731 488.182 189.297 487.774C189.864 487.366 190.295 486.89 190.589 486.346C190.907 485.779 191.065 485.077 191.065 484.238V483.66C191.065 482.119 190.657 481.042 189.841 480.43C189.025 479.795 187.892 479.478 186.441 479.478C185.671 479.478 184.821 479.569 183.891 479.75C182.985 479.931 182.033 480.249 181.035 480.702L180.287 478.934C181.33 478.435 182.384 478.084 183.449 477.88C184.515 477.653 185.512 477.54 186.441 477.54C188.799 477.54 190.51 478.084 191.575 479.172C192.663 480.237 193.207 481.733 193.207 483.66V484.238C193.207 485.439 192.981 486.437 192.527 487.23C192.074 488.023 191.485 488.692 190.759 489.236C190.034 489.757 189.252 490.233 188.413 490.664L186.271 491.786C185.025 492.443 184.107 493.361 183.517 494.54C182.951 495.719 182.645 497.226 182.599 499.062H193.139V501Z" fill="black"/>
<path d="M211.783 495.05C211.783 496.229 211.523 497.294 211.001 498.246C210.503 499.198 209.721 499.957 208.655 500.524C207.59 501.068 206.219 501.34 204.541 501.34C202.932 501.34 201.606 501.068 200.563 500.524C199.543 499.98 198.784 499.266 198.285 498.382C197.809 497.475 197.571 496.467 197.571 495.356C197.571 494.109 197.877 492.987 198.489 491.99C199.124 490.97 200.133 490.018 201.515 489.134C200.427 488.567 199.589 487.831 198.999 486.924C198.41 486.017 198.115 484.895 198.115 483.558C198.115 482.561 198.342 481.609 198.795 480.702C199.249 479.773 199.951 479.013 200.903 478.424C201.878 477.835 203.136 477.54 204.677 477.54C206.196 477.54 207.431 477.812 208.383 478.356C209.358 478.9 210.072 479.625 210.525 480.532C211.001 481.416 211.239 482.413 211.239 483.524C211.239 484.703 210.967 485.768 210.423 486.72C209.879 487.672 208.995 488.567 207.771 489.406C209.086 489.973 210.083 490.687 210.763 491.548C211.443 492.409 211.783 493.577 211.783 495.05ZM204.065 487.978L206.003 488.692C207.25 487.808 208.077 486.969 208.485 486.176C208.893 485.383 209.097 484.555 209.097 483.694C209.097 482.402 208.735 481.371 208.009 480.6C207.284 479.807 206.173 479.41 204.677 479.41C203.431 479.41 202.377 479.75 201.515 480.43C200.677 481.11 200.257 482.153 200.257 483.558C200.257 484.623 200.529 485.496 201.073 486.176C201.617 486.856 202.615 487.457 204.065 487.978ZM199.713 495.152C199.713 496.467 200.099 497.521 200.869 498.314C201.663 499.085 202.887 499.47 204.541 499.47C206.151 499.47 207.397 499.107 208.281 498.382C209.188 497.657 209.641 496.603 209.641 495.22C209.641 494.381 209.505 493.701 209.233 493.18C208.961 492.636 208.508 492.171 207.873 491.786C207.239 491.401 206.377 491.015 205.289 490.63L203.249 489.882C201.844 490.811 200.903 491.695 200.427 492.534C199.951 493.373 199.713 494.245 199.713 495.152Z" fill="black"/>
<path d="M267.78 501H255.098V499.402C255.098 496.795 255.54 494.778 256.424 493.35C257.331 491.899 258.453 490.823 259.79 490.12L261.932 488.998C262.703 488.59 263.371 488.182 263.938 487.774C264.505 487.366 264.935 486.89 265.23 486.346C265.547 485.779 265.706 485.077 265.706 484.238V483.66C265.706 482.119 265.298 481.042 264.482 480.43C263.666 479.795 262.533 479.478 261.082 479.478C260.311 479.478 259.461 479.569 258.532 479.75C257.625 479.931 256.673 480.249 255.676 480.702L254.928 478.934C255.971 478.435 257.025 478.084 258.09 477.88C259.155 477.653 260.153 477.54 261.082 477.54C263.439 477.54 265.151 478.084 266.216 479.172C267.304 480.237 267.848 481.733 267.848 483.66V484.238C267.848 485.439 267.621 486.437 267.168 487.23C266.715 488.023 266.125 488.692 265.4 489.236C264.675 489.757 263.893 490.233 263.054 490.664L260.912 491.786C259.665 492.443 258.747 493.361 258.158 494.54C257.591 495.719 257.285 497.226 257.24 499.062H267.78V501Z" fill="black"/>
<path d="M285.982 492.092C285.982 495.243 285.279 497.577 283.874 499.096C282.491 500.592 280.621 501.34 278.264 501.34C277.425 501.34 276.507 501.238 275.51 501.034C274.513 500.853 273.481 500.513 272.416 500.014L273.164 498.246C274.139 498.677 275.045 498.983 275.884 499.164C276.745 499.323 277.516 499.402 278.196 499.402C279.941 499.402 281.324 498.858 282.344 497.77C283.387 496.659 283.908 494.767 283.908 492.092V489.61C283.069 490.313 282.163 490.902 281.188 491.378C280.213 491.854 279.148 492.092 277.992 492.092C276.02 492.092 274.479 491.491 273.368 490.29C272.28 489.066 271.736 487.457 271.736 485.462V484.204C271.736 482.187 272.359 480.577 273.606 479.376C274.853 478.152 276.553 477.54 278.706 477.54C281.086 477.54 282.888 478.356 284.112 479.988C285.359 481.597 285.982 483.898 285.982 486.89V492.092ZM273.81 485.462C273.81 486.913 274.184 488.057 274.932 488.896C275.703 489.735 276.779 490.154 278.162 490.154C279.227 490.154 280.247 489.905 281.222 489.406C282.219 488.907 283.115 488.273 283.908 487.502V486.89C283.908 481.949 282.174 479.478 278.706 479.478C277.187 479.478 275.986 479.897 275.102 480.736C274.241 481.575 273.81 482.731 273.81 484.204V485.462Z" fill="black"/>
<path d="M342.486 495.118C342.486 497.045 341.897 498.563 340.718 499.674C339.562 500.785 337.76 501.34 335.312 501.34C334.315 501.34 333.261 501.227 332.15 501C331.062 500.773 329.986 500.411 328.92 499.912L329.6 498.144C330.666 498.643 331.663 498.983 332.592 499.164C333.544 499.323 334.451 499.402 335.312 499.402C336.831 499.402 338.032 499.073 338.916 498.416C339.8 497.759 340.242 496.659 340.242 495.118V494.54C340.242 493.225 339.88 492.183 339.154 491.412C338.429 490.641 337.296 490.256 335.754 490.256H332.49V488.386H335.754C337.228 488.386 338.304 488.012 338.984 487.264C339.664 486.516 340.004 485.507 340.004 484.238V483.762C340.004 482.221 339.585 481.121 338.746 480.464C337.93 479.807 336.82 479.478 335.414 479.478C334.621 479.478 333.782 479.569 332.898 479.75C332.037 479.931 331.108 480.249 330.11 480.702L329.362 478.934C330.382 478.458 331.402 478.107 332.422 477.88C333.465 477.653 334.462 477.54 335.414 477.54C337.749 477.54 339.472 478.095 340.582 479.206C341.693 480.317 342.248 481.835 342.248 483.762V484.238C342.248 485.417 341.976 486.448 341.432 487.332C340.888 488.193 340.118 488.851 339.12 489.304C340.163 489.757 340.979 490.437 341.568 491.344C342.18 492.228 342.486 493.293 342.486 494.54V495.118Z" fill="black"/>
<path d="M363.059 486.822V492.024C363.059 495.175 362.367 497.521 360.985 499.062C359.625 500.581 357.777 501.34 355.443 501.34C353.108 501.34 351.249 500.581 349.867 499.062C348.507 497.521 347.827 495.175 347.827 492.024V486.822C347.827 483.671 348.518 481.337 349.901 479.818C351.283 478.299 353.131 477.54 355.443 477.54C357.755 477.54 359.602 478.299 360.985 479.818C362.367 481.337 363.059 483.671 363.059 486.822ZM360.815 486.822C360.815 484.17 360.316 482.289 359.319 481.178C358.344 480.045 357.052 479.478 355.443 479.478C353.856 479.478 352.564 480.045 351.567 481.178C350.569 482.289 350.071 484.17 350.071 486.822V492.024C350.071 494.653 350.569 496.546 351.567 497.702C352.564 498.835 353.856 499.402 355.443 499.402C357.052 499.402 358.344 498.835 359.319 497.702C360.316 496.546 360.815 494.653 360.815 492.024V486.822Z" fill="black"/>
<path d="M413.788 481.008L419.057 477.88H421.267V501H419.125V480.09L414.773 482.64L413.788 481.008Z" fill="black"/>
<path d="M486.655 501H473.973V499.402C473.973 496.795 474.415 494.778 475.299 493.35C476.206 491.899 477.328 490.823 478.665 490.12L480.807 488.998C481.578 488.59 482.246 488.182 482.813 487.774C483.38 487.366 483.81 486.89 484.105 486.346C484.422 485.779 484.581 485.077 484.581 484.238V483.66C484.581 482.119 484.173 481.042 483.357 480.43C482.541 479.795 481.408 479.478 479.957 479.478C479.186 479.478 478.336 479.569 477.407 479.75C476.5 479.931 475.548 480.249 474.551 480.702L473.803 478.934C474.846 478.435 475.9 478.084 476.965 477.88C478.03 477.653 479.028 477.54 479.957 477.54C482.314 477.54 484.026 478.084 485.091 479.172C486.179 480.237 486.723 481.733 486.723 483.66V484.238C486.723 485.439 486.496 486.437 486.043 487.23C485.59 488.023 485 488.692 484.275 489.236C483.55 489.757 482.768 490.233 481.929 490.664L479.787 491.786C478.54 492.443 477.622 493.361 477.033 494.54C476.466 495.719 476.16 497.226 476.115 499.062H486.655V501Z" fill="black"/>
<path d="M34.85 328.008L40.12 324.88H42.33V348H40.188V327.09L35.836 329.64L34.85 328.008Z" fill="black"/>
<path d="M60.702 348H48.02V346.402C48.02 343.795 48.462 341.778 49.346 340.35C50.2526 338.899 51.3746 337.823 52.712 337.12L54.854 335.998C55.6246 335.59 56.2933 335.182 56.86 334.774C57.4266 334.366 57.8573 333.89 58.152 333.346C58.4693 332.779 58.628 332.077 58.628 331.238V330.66C58.628 329.119 58.22 328.042 57.404 327.43C56.588 326.795 55.4546 326.478 54.004 326.478C53.2333 326.478 52.3833 326.569 51.454 326.75C50.5473 326.931 49.5953 327.249 48.598 327.702L47.85 325.934C48.8926 325.435 49.9466 325.084 51.012 324.88C52.0773 324.653 53.0746 324.54 54.004 324.54C56.3613 324.54 58.0726 325.084 59.138 326.172C60.226 327.237 60.77 328.733 60.77 330.66V331.238C60.77 332.439 60.5433 333.437 60.09 334.23C59.6366 335.023 59.0473 335.692 58.322 336.236C57.5966 336.757 56.8146 337.233 55.976 337.664L53.834 338.786C52.5873 339.443 51.6693 340.361 51.08 341.54C50.5133 342.719 50.2073 344.226 50.162 346.062H60.702V348Z" fill="black"/>
<path d="M102.784 328.008L108.054 324.88H110.264V348H108.122V327.09L103.77 329.64L102.784 328.008Z" fill="black"/>
<path d="M128.602 342.118C128.602 344.045 128.012 345.563 126.834 346.674C125.678 347.785 123.876 348.34 121.428 348.34C120.43 348.34 119.376 348.227 118.266 348C117.178 347.773 116.101 347.411 115.036 346.912L115.716 345.144C116.781 345.643 117.778 345.983 118.708 346.164C119.66 346.323 120.566 346.402 121.428 346.402C122.946 346.402 124.148 346.073 125.032 345.416C125.916 344.759 126.358 343.659 126.358 342.118V341.54C126.358 340.225 125.995 339.183 125.27 338.412C124.544 337.641 123.411 337.256 121.87 337.256H118.606V335.386H121.87C123.343 335.386 124.42 335.012 125.1 334.264C125.78 333.516 126.12 332.507 126.12 331.238V330.762C126.12 329.221 125.7 328.121 124.862 327.464C124.046 326.807 122.935 326.478 121.53 326.478C120.736 326.478 119.898 326.569 119.014 326.75C118.152 326.931 117.223 327.249 116.226 327.702L115.478 325.934C116.498 325.458 117.518 325.107 118.538 324.88C119.58 324.653 120.578 324.54 121.53 324.54C123.864 324.54 125.587 325.095 126.698 326.206C127.808 327.317 128.364 328.835 128.364 330.762V331.238C128.364 332.417 128.092 333.448 127.548 334.332C127.004 335.193 126.233 335.851 125.236 336.304C126.278 336.757 127.094 337.437 127.684 338.344C128.296 339.228 128.602 340.293 128.602 341.54V342.118Z" fill="black"/>
<path d="M171.116 328.008L176.386 324.88H178.596V348H176.454V327.09L172.102 329.64L171.116 328.008Z" fill="black"/>
<path d="M197.83 342.22H195.212V348H193.172V342.22H183.244V340.656C185.125 337.8 186.757 335.114 188.14 332.598C189.522 330.059 190.701 327.487 191.676 324.88H193.92C192.9 327.464 191.732 329.98 190.418 332.428C189.103 334.876 187.505 337.505 185.624 340.316H193.172V335.624H195.212V340.316H197.83V342.22Z" fill="black"/>
<path d="M238.916 328.008L244.186 324.88H246.396V348H244.254V327.09L239.902 329.64L238.916 328.008Z" fill="black"/>
<path d="M252.698 335.896L253.378 324.88H264.632V326.818H255.316L254.874 334.468C255.418 334.264 255.996 334.105 256.608 333.992C257.22 333.879 257.855 333.822 258.512 333.822C260.552 333.822 262.207 334.377 263.476 335.488C264.768 336.599 265.414 338.253 265.414 340.452V341.54C265.414 343.625 264.825 345.28 263.646 346.504C262.49 347.728 260.688 348.34 258.24 348.34C257.243 348.34 256.189 348.227 255.078 348C253.99 347.773 252.914 347.411 251.848 346.912L252.528 345.144C253.594 345.643 254.591 345.983 255.52 346.164C256.472 346.323 257.379 346.402 258.24 346.402C259.759 346.402 260.96 346.039 261.844 345.314C262.728 344.566 263.17 343.308 263.17 341.54V340.452C263.17 339.047 262.762 337.913 261.946 337.052C261.153 336.191 259.974 335.76 258.41 335.76C257.64 335.76 256.903 335.851 256.2 336.032C255.52 336.213 254.818 336.485 254.092 336.848L252.698 335.896Z" fill="black"/>
<path d="M323.02 328.008L328.29 324.88H330.5V348H328.358V327.09L324.006 329.64L323.02 328.008Z" fill="black"/>
<path d="M351.592 341.676C351.592 343.693 350.969 345.314 349.722 346.538C348.475 347.739 346.775 348.34 344.622 348.34C342.242 348.34 340.429 347.535 339.182 345.926C337.958 344.294 337.346 341.982 337.346 338.99V333.788C337.346 330.637 338.037 328.314 339.42 326.818C340.825 325.299 342.707 324.54 345.064 324.54C345.903 324.54 346.821 324.642 347.818 324.846C348.838 325.027 349.869 325.367 350.912 325.866L350.164 327.634C349.189 327.203 348.271 326.909 347.41 326.75C346.571 326.569 345.812 326.478 345.132 326.478C343.387 326.478 341.993 327.022 340.95 328.11C339.93 329.198 339.42 331.091 339.42 333.788V336.27C340.259 335.545 341.165 334.955 342.14 334.502C343.115 334.026 344.18 333.788 345.336 333.788C347.308 333.788 348.838 334.389 349.926 335.59C351.037 336.791 351.592 338.401 351.592 340.418V341.676ZM339.42 338.99C339.42 343.931 341.154 346.402 344.622 346.402C346.163 346.402 347.365 345.983 348.226 345.144C349.087 344.305 349.518 343.149 349.518 341.676V340.418C349.518 338.945 349.133 337.8 348.362 336.984C347.614 336.145 346.549 335.726 345.166 335.726C344.101 335.726 343.069 335.975 342.072 336.474C341.097 336.95 340.213 337.585 339.42 338.378V338.99Z" fill="black"/>
<path d="M393.51 328.008L398.78 324.88H400.99V348H398.848V327.09L394.496 329.64L393.51 328.008Z" fill="black"/>
<path d="M419.068 326.478C417.277 330.082 415.759 333.675 414.512 337.256C413.265 340.837 412.347 344.419 411.758 348H409.548C410.137 344.464 411.044 340.939 412.268 337.426C413.515 333.89 415.022 330.354 416.79 326.818H405.57V324.88H419.068V326.478Z" fill="black"/>
<path d="M460.547 328.008L465.817 324.88H468.027V348H465.885V327.09L461.533 329.64L460.547 328.008Z" fill="black"/>
<path d="M488.541 342.05C488.541 343.229 488.281 344.294 487.759 345.246C487.261 346.198 486.479 346.957 485.413 347.524C484.348 348.068 482.977 348.34 481.299 348.34C479.69 348.34 478.364 348.068 477.321 347.524C476.301 346.98 475.542 346.266 475.043 345.382C474.567 344.475 474.329 343.467 474.329 342.356C474.329 341.109 474.635 339.987 475.247 338.99C475.882 337.97 476.891 337.018 478.273 336.134C477.185 335.567 476.347 334.831 475.757 333.924C475.168 333.017 474.873 331.895 474.873 330.558C474.873 329.561 475.1 328.609 475.553 327.702C476.007 326.773 476.709 326.013 477.661 325.424C478.636 324.835 479.894 324.54 481.435 324.54C482.954 324.54 484.189 324.812 485.141 325.356C486.116 325.9 486.83 326.625 487.283 327.532C487.759 328.416 487.997 329.413 487.997 330.524C487.997 331.703 487.725 332.768 487.181 333.72C486.637 334.672 485.753 335.567 484.529 336.406C485.844 336.973 486.841 337.687 487.521 338.548C488.201 339.409 488.541 340.577 488.541 342.05ZM480.823 334.978L482.761 335.692C484.008 334.808 484.835 333.969 485.243 333.176C485.651 332.383 485.855 331.555 485.855 330.694C485.855 329.402 485.493 328.371 484.767 327.6C484.042 326.807 482.931 326.41 481.435 326.41C480.189 326.41 479.135 326.75 478.273 327.43C477.435 328.11 477.015 329.153 477.015 330.558C477.015 331.623 477.287 332.496 477.831 333.176C478.375 333.856 479.373 334.457 480.823 334.978ZM476.471 342.152C476.471 343.467 476.857 344.521 477.627 345.314C478.421 346.085 479.645 346.47 481.299 346.47C482.909 346.47 484.155 346.107 485.039 345.382C485.946 344.657 486.399 343.603 486.399 342.22C486.399 341.381 486.263 340.701 485.991 340.18C485.719 339.636 485.266 339.171 484.631 338.786C483.997 338.401 483.135 338.015 482.047 337.63L480.007 336.882C478.602 337.811 477.661 338.695 477.185 339.534C476.709 340.373 476.471 341.245 476.471 342.152Z" fill="black"/>
<path d="M141 264C141 276.15 130.703 286 118 286C105.297 286 95 276.15 95 264C95 251.85 105.297 242 118 242C130.703 242 141 251.85 141 264Z" fill="#FFB1B1" fill-opacity="0.5"/>
<path d="M33.85 406.008L39.12 402.88H41.33V426H39.188V405.09L34.836 407.64L33.85 406.008Z" fill="black"/>
<path d="M61.402 417.092C61.402 420.243 60.6993 422.577 59.294 424.096C57.9113 425.592 56.0413 426.34 53.684 426.34C52.8453 426.34 51.9273 426.238 50.93 426.034C49.9326 425.853 48.9013 425.513 47.836 425.014L48.584 423.246C49.5586 423.677 50.4653 423.983 51.304 424.164C52.1653 424.323 52.936 424.402 53.616 424.402C55.3613 424.402 56.744 423.858 57.764 422.77C58.8066 421.659 59.328 419.767 59.328 417.092V414.61C58.4893 415.313 57.5826 415.902 56.608 416.378C55.6333 416.854 54.568 417.092 53.412 417.092C51.44 417.092 49.8986 416.491 48.788 415.29C47.7 414.066 47.156 412.457 47.156 410.462V409.204C47.156 407.187 47.7793 405.577 49.026 404.376C50.2726 403.152 51.9726 402.54 54.126 402.54C56.506 402.54 58.308 403.356 59.532 404.988C60.7786 406.597 61.402 408.898 61.402 411.89V417.092ZM49.23 410.462C49.23 411.913 49.604 413.057 50.352 413.896C51.1226 414.735 52.1993 415.154 53.582 415.154C54.6473 415.154 55.6673 414.905 56.642 414.406C57.6393 413.907 58.5346 413.273 59.328 412.502V411.89C59.328 406.949 57.594 404.478 54.126 404.478C52.6073 404.478 51.406 404.897 50.522 405.736C49.6606 406.575 49.23 407.731 49.23 409.204V410.462Z" fill="black"/>
<path d="M117.94 426H105.258V424.402C105.258 421.795 105.7 419.778 106.584 418.35C107.491 416.899 108.613 415.823 109.95 415.12L112.092 413.998C112.863 413.59 113.532 413.182 114.098 412.774C114.665 412.366 115.096 411.89 115.39 411.346C115.708 410.779 115.866 410.077 115.866 409.238V408.66C115.866 407.119 115.458 406.042 114.642 405.43C113.826 404.795 112.693 404.478 111.242 404.478C110.472 404.478 109.622 404.569 108.692 404.75C107.786 404.931 106.834 405.249 105.836 405.702L105.088 403.934C106.131 403.435 107.185 403.084 108.25 402.88C109.316 402.653 110.313 402.54 111.242 402.54C113.6 402.54 115.311 403.084 116.376 404.172C117.464 405.237 118.008 406.733 118.008 408.66V409.238C118.008 410.439 117.782 411.437 117.328 412.23C116.875 413.023 116.286 413.692 115.56 414.236C114.835 414.757 114.053 415.233 113.214 415.664L111.072 416.786C109.826 417.443 108.908 418.361 108.318 419.54C107.752 420.719 107.446 422.226 107.4 424.062H117.94V426Z" fill="black"/>
<path d="M138.08 411.822V417.024C138.08 420.175 137.389 422.521 136.006 424.062C134.646 425.581 132.799 426.34 130.464 426.34C128.13 426.34 126.271 425.581 124.888 424.062C123.528 422.521 122.848 420.175 122.848 417.024V411.822C122.848 408.671 123.54 406.337 124.922 404.818C126.305 403.299 128.152 402.54 130.464 402.54C132.776 402.54 134.624 403.299 136.006 404.818C137.389 406.337 138.08 408.671 138.08 411.822ZM135.836 411.822C135.836 409.17 135.338 407.289 134.34 406.178C133.366 405.045 132.074 404.478 130.464 404.478C128.878 404.478 127.586 405.045 126.588 406.178C125.591 407.289 125.092 409.17 125.092 411.822V417.024C125.092 419.653 125.591 421.546 126.588 422.702C127.586 423.835 128.878 424.402 130.464 424.402C132.074 424.402 133.366 423.835 134.34 422.702C135.338 421.546 135.836 419.653 135.836 417.024V411.822Z" fill="black"/>
<path d="M194.573 426H181.891V424.402C181.891 421.795 182.333 419.778 183.217 418.35C184.124 416.899 185.246 415.823 186.583 415.12L188.725 413.998C189.496 413.59 190.164 413.182 190.731 412.774C191.298 412.366 191.728 411.89 192.023 411.346C192.34 410.779 192.499 410.077 192.499 409.238V408.66C192.499 407.119 192.091 406.042 191.275 405.43C190.459 404.795 189.326 404.478 187.875 404.478C187.104 404.478 186.254 404.569 185.325 404.75C184.418 404.931 183.466 405.249 182.469 405.702L181.721 403.934C182.764 403.435 183.818 403.084 184.883 402.88C185.948 402.653 186.946 402.54 187.875 402.54C190.232 402.54 191.944 403.084 193.009 404.172C194.097 405.237 194.641 406.733 194.641 408.66V409.238C194.641 410.439 194.414 411.437 193.961 412.23C193.508 413.023 192.918 413.692 192.193 414.236C191.468 414.757 190.686 415.233 189.847 415.664L187.705 416.786C186.458 417.443 185.54 418.361 184.951 419.54C184.384 420.719 184.078 422.226 184.033 424.062H194.573V426Z" fill="black"/>
<path d="M197.475 406.008L202.745 402.88H204.955V426H202.813V405.09L198.461 407.64L197.475 406.008Z" fill="black"/>
<path d="M262.507 426H249.825V424.402C249.825 421.795 250.267 419.778 251.151 418.35C252.057 416.899 253.179 415.823 254.517 415.12L256.659 413.998C257.429 413.59 258.098 413.182 258.665 412.774C259.231 412.366 259.662 411.89 259.957 411.346C260.274 410.779 260.433 410.077 260.433 409.238V408.66C260.433 407.119 260.025 406.042 259.209 405.43C258.393 404.795 257.259 404.478 255.809 404.478C255.038 404.478 254.188 404.569 253.259 404.75C252.352 404.931 251.4 405.249 250.403 405.702L249.655 403.934C250.697 403.435 251.751 403.084 252.817 402.88C253.882 402.653 254.879 402.54 255.809 402.54C258.166 402.54 259.877 403.084 260.943 404.172C262.031 405.237 262.575 406.733 262.575 408.66V409.238C262.575 410.439 262.348 411.437 261.895 412.23C261.441 413.023 260.852 413.692 260.127 414.236C259.401 414.757 258.619 415.233 257.781 415.664L255.639 416.786C254.392 417.443 253.474 418.361 252.885 419.54C252.318 420.719 252.012 422.226 251.967 424.062H262.507V426Z" fill="black"/>
<path d="M279.009 426H266.327V424.402C266.327 421.795 266.769 419.778 267.653 418.35C268.559 416.899 269.681 415.823 271.019 415.12L273.161 413.998C273.931 413.59 274.6 413.182 275.167 412.774C275.733 412.366 276.164 411.89 276.459 411.346C276.776 410.779 276.935 410.077 276.935 409.238V408.66C276.935 407.119 276.527 406.042 275.711 405.43C274.895 404.795 273.761 404.478 272.311 404.478C271.54 404.478 270.69 404.569 269.761 404.75C268.854 404.931 267.902 405.249 266.905 405.702L266.157 403.934C267.199 403.435 268.253 403.084 269.319 402.88C270.384 402.653 271.381 402.54 272.311 402.54C274.668 402.54 276.379 403.084 277.445 404.172C278.533 405.237 279.077 406.733 279.077 408.66V409.238C279.077 410.439 278.85 411.437 278.397 412.23C277.943 413.023 277.354 413.692 276.629 414.236C275.903 414.757 275.121 415.233 274.283 415.664L272.141 416.786C270.894 417.443 269.976 418.361 269.387 419.54C268.82 420.719 268.514 422.226 268.469 424.062H279.009V426Z" fill="black"/>
<path d="M334.69 426H322.008V424.402C322.008 421.795 322.45 419.778 323.334 418.35C324.241 416.899 325.363 415.823 326.7 415.12L328.842 413.998C329.613 413.59 330.282 413.182 330.848 412.774C331.415 412.366 331.846 411.89 332.14 411.346C332.458 410.779 332.616 410.077 332.616 409.238V408.66C332.616 407.119 332.208 406.042 331.392 405.43C330.576 404.795 329.443 404.478 327.992 404.478C327.222 404.478 326.372 404.569 325.442 404.75C324.536 404.931 323.584 405.249 322.586 405.702L321.838 403.934C322.881 403.435 323.935 403.084 325 402.88C326.066 402.653 327.063 402.54 327.992 402.54C330.35 402.54 332.061 403.084 333.126 404.172C334.214 405.237 334.758 406.733 334.758 408.66V409.238C334.758 410.439 334.532 411.437 334.078 412.23C333.625 413.023 333.036 413.692 332.31 414.236C331.585 414.757 330.803 415.233 329.964 415.664L327.822 416.786C326.576 417.443 325.658 418.361 325.068 419.54C324.502 420.719 324.196 422.226 324.15 424.062H334.69V426Z" fill="black"/>
<path d="M351.158 420.118C351.158 422.045 350.569 423.563 349.39 424.674C348.234 425.785 346.432 426.34 343.984 426.34C342.987 426.34 341.933 426.227 340.822 426C339.734 425.773 338.658 425.411 337.592 424.912L338.272 423.144C339.338 423.643 340.335 423.983 341.264 424.164C342.216 424.323 343.123 424.402 343.984 424.402C345.503 424.402 346.704 424.073 347.588 423.416C348.472 422.759 348.914 421.659 348.914 420.118V419.54C348.914 418.225 348.552 417.183 347.826 416.412C347.101 415.641 345.968 415.256 344.426 415.256H341.162V413.386H344.426C345.9 413.386 346.976 413.012 347.656 412.264C348.336 411.516 348.676 410.507 348.676 409.238V408.762C348.676 407.221 348.257 406.121 347.418 405.464C346.602 404.807 345.492 404.478 344.086 404.478C343.293 404.478 342.454 404.569 341.57 404.75C340.709 404.931 339.78 405.249 338.782 405.702L338.034 403.934C339.054 403.458 340.074 403.107 341.094 402.88C342.137 402.653 343.134 402.54 344.086 402.54C346.421 402.54 348.144 403.095 349.254 404.206C350.365 405.317 350.92 406.835 350.92 408.762V409.238C350.92 410.417 350.648 411.448 350.104 412.332C349.56 413.193 348.79 413.851 347.792 414.304C348.835 414.757 349.651 415.437 350.24 416.344C350.852 417.228 351.158 418.293 351.158 419.54V420.118Z" fill="black"/>
<path d="M407.272 426H394.59V424.402C394.59 421.795 395.032 419.778 395.916 418.35C396.823 416.899 397.945 415.823 399.282 415.12L401.424 413.998C402.195 413.59 402.864 413.182 403.43 412.774C403.997 412.366 404.428 411.89 404.722 411.346C405.04 410.779 405.198 410.077 405.198 409.238V408.66C405.198 407.119 404.79 406.042 403.974 405.43C403.158 404.795 402.025 404.478 400.574 404.478C399.804 404.478 398.954 404.569 398.024 404.75C397.118 404.931 396.166 405.249 395.168 405.702L394.42 403.934C395.463 403.435 396.517 403.084 397.582 402.88C398.648 402.653 399.645 402.54 400.574 402.54C402.932 402.54 404.643 403.084 405.708 404.172C406.796 405.237 407.34 406.733 407.34 408.66V409.238C407.34 410.439 407.114 411.437 406.66 412.23C406.207 413.023 405.618 413.692 404.892 414.236C404.167 414.757 403.385 415.233 402.546 415.664L400.404 416.786C399.158 417.443 398.24 418.361 397.65 419.54C397.084 420.719 396.778 422.226 396.732 424.062H407.272V426Z" fill="black"/>
<path d="M424.636 420.22H422.018V426H419.978V420.22H410.05V418.656C411.932 415.8 413.564 413.114 414.946 410.598C416.329 408.059 417.508 405.487 418.482 402.88H420.726C419.706 405.464 418.539 407.98 417.224 410.428C415.91 412.876 414.312 415.505 412.43 418.316H419.978V413.624H422.018V418.316H424.636V420.22Z" fill="black"/>
<path d="M471.487 426H458.805V424.402C458.805 421.795 459.247 419.778 460.131 418.35C461.038 416.899 462.16 415.823 463.497 415.12L465.639 413.998C466.41 413.59 467.078 413.182 467.645 412.774C468.212 412.366 468.642 411.89 468.937 411.346C469.254 410.779 469.413 410.077 469.413 409.238V408.66C469.413 407.119 469.005 406.042 468.189 405.43C467.373 404.795 466.24 404.478 464.789 404.478C464.018 404.478 463.168 404.569 462.239 404.75C461.332 404.931 460.38 405.249 459.383 405.702L458.635 403.934C459.678 403.435 460.732 403.084 461.797 402.88C462.862 402.653 463.86 402.54 464.789 402.54C467.146 402.54 468.858 403.084 469.923 404.172C471.011 405.237 471.555 406.733 471.555 408.66V409.238C471.555 410.439 471.328 411.437 470.875 412.23C470.422 413.023 469.832 413.692 469.107 414.236C468.382 414.757 467.6 415.233 466.761 415.664L464.619 416.786C463.372 417.443 462.454 418.361 461.865 419.54C461.298 420.719 460.992 422.226 460.947 424.062H471.487V426Z" fill="black"/>
<path d="M475.919 413.896L476.599 402.88H487.853V404.818H478.537L478.095 412.468C478.639 412.264 479.217 412.105 479.829 411.992C480.441 411.879 481.076 411.822 481.733 411.822C483.773 411.822 485.428 412.377 486.697 413.488C487.989 414.599 488.635 416.253 488.635 418.452V419.54C488.635 421.625 488.046 423.28 486.867 424.504C485.711 425.728 483.909 426.34 481.461 426.34C480.464 426.34 479.41 426.227 478.299 426C477.211 425.773 476.134 425.411 475.069 424.912L475.749 423.144C476.814 423.643 477.812 423.983 478.741 424.164C479.693 424.323 480.6 424.402 481.461 424.402C482.98 424.402 484.181 424.039 485.065 423.314C485.949 422.566 486.391 421.308 486.391 419.54V418.452C486.391 417.047 485.983 415.913 485.167 415.052C484.374 414.191 483.195 413.76 481.631 413.76C480.86 413.76 480.124 413.851 479.421 414.032C478.741 414.213 478.038 414.485 477.313 414.848L475.919 413.896Z" fill="black"/>
<path d="M47.2159 263.896L47.8959 252.88H59.1499V254.818H49.8339L49.3919 262.468C49.9359 262.264 50.5139 262.105 51.1259 261.992C51.7379 261.879 52.3726 261.822 53.0299 261.822C55.0699 261.822 56.7246 262.377 57.9939 263.488C59.2859 264.599 59.9319 266.253 59.9319 268.452V269.54C59.9319 271.625 59.3426 273.28 58.1639 274.504C57.0079 275.728 55.2059 276.34 52.7579 276.34C51.7606 276.34 50.7066 276.227 49.5959 276C48.5079 275.773 47.4313 275.411 46.3659 274.912L47.0459 273.144C48.1113 273.643 49.1086 273.983 50.0379 274.164C50.9899 274.323 51.8966 274.402 52.7579 274.402C54.2766 274.402 55.4779 274.039 56.3619 273.314C57.2459 272.566 57.6879 271.308 57.6879 269.54V268.452C57.6879 267.047 57.2799 265.913 56.4639 265.052C55.6706 264.191 54.4919 263.76 52.9279 263.76C52.1573 263.76 51.4206 263.851 50.7179 264.032C50.0379 264.213 49.3353 264.485 48.6099 264.848L47.2159 263.896Z" fill="black"/>
<path d="M126.022 269.676C126.022 271.693 125.398 273.314 124.152 274.538C122.905 275.739 121.205 276.34 119.052 276.34C116.672 276.34 114.858 275.535 113.612 273.926C112.388 272.294 111.776 269.982 111.776 266.99V261.788C111.776 258.637 112.467 256.314 113.85 254.818C115.255 253.299 117.136 252.54 119.494 252.54C120.332 252.54 121.25 252.642 122.248 252.846C123.268 253.027 124.299 253.367 125.342 253.866L124.594 255.634C123.619 255.203 122.701 254.909 121.84 254.75C121.001 254.569 120.242 254.478 119.562 254.478C117.816 254.478 116.422 255.022 115.38 256.11C114.36 257.198 113.85 259.091 113.85 261.788V264.27C114.688 263.545 115.595 262.955 116.57 262.502C117.544 262.026 118.61 261.788 119.766 261.788C121.738 261.788 123.268 262.389 124.356 263.59C125.466 264.791 126.022 266.401 126.022 268.418V269.676ZM113.85 266.99C113.85 271.931 115.584 274.402 119.052 274.402C120.593 274.402 121.794 273.983 122.656 273.144C123.517 272.305 123.948 271.149 123.948 269.676V268.418C123.948 266.945 123.562 265.8 122.792 264.984C122.044 264.145 120.978 263.726 119.596 263.726C118.53 263.726 117.499 263.975 116.502 264.474C115.527 264.95 114.643 265.585 113.85 266.378V266.99Z" fill="black"/>
<path d="M197.416 254.478C195.625 258.082 194.106 261.675 192.86 265.256C191.613 268.837 190.695 272.419 190.106 276H187.896C188.485 272.464 189.392 268.939 190.616 265.426C191.862 261.89 193.37 258.354 195.138 254.818H183.918V252.88H197.416V254.478Z" fill="black"/>
<path d="M262.473 270.05C262.473 271.229 262.212 272.294 261.691 273.246C261.192 274.198 260.41 274.957 259.345 275.524C258.28 276.068 256.908 276.34 255.231 276.34C253.622 276.34 252.296 276.068 251.253 275.524C250.233 274.98 249.474 274.266 248.975 273.382C248.499 272.475 248.261 271.467 248.261 270.356C248.261 269.109 248.567 267.987 249.179 266.99C249.814 265.97 250.822 265.018 252.205 264.134C251.117 263.567 250.278 262.831 249.689 261.924C249.1 261.017 248.805 259.895 248.805 258.558C248.805 257.561 249.032 256.609 249.485 255.702C249.938 254.773 250.641 254.013 251.593 253.424C252.568 252.835 253.826 252.54 255.367 252.54C256.886 252.54 258.121 252.812 259.073 253.356C260.048 253.9 260.762 254.625 261.215 255.532C261.691 256.416 261.929 257.413 261.929 258.524C261.929 259.703 261.657 260.768 261.113 261.72C260.569 262.672 259.685 263.567 258.461 264.406C259.776 264.973 260.773 265.687 261.453 266.548C262.133 267.409 262.473 268.577 262.473 270.05ZM254.755 262.978L256.693 263.692C257.94 262.808 258.767 261.969 259.175 261.176C259.583 260.383 259.787 259.555 259.787 258.694C259.787 257.402 259.424 256.371 258.699 255.6C257.974 254.807 256.863 254.41 255.367 254.41C254.12 254.41 253.066 254.75 252.205 255.43C251.366 256.11 250.947 257.153 250.947 258.558C250.947 259.623 251.219 260.496 251.763 261.176C252.307 261.856 253.304 262.457 254.755 262.978ZM250.403 270.152C250.403 271.467 250.788 272.521 251.559 273.314C252.352 274.085 253.576 274.47 255.231 274.47C256.84 274.47 258.087 274.107 258.971 273.382C259.878 272.657 260.331 271.603 260.331 270.22C260.331 269.381 260.195 268.701 259.923 268.18C259.651 267.636 259.198 267.171 258.563 266.786C257.928 266.401 257.067 266.015 255.979 265.63L253.939 264.882C252.534 265.811 251.593 266.695 251.117 267.534C250.641 268.373 250.403 269.245 250.403 270.152Z" fill="black"/>
<path d="M343.677 267.092C343.677 270.243 342.975 272.577 341.569 274.096C340.187 275.592 338.317 276.34 335.959 276.34C335.121 276.34 334.203 276.238 333.205 276.034C332.208 275.853 331.177 275.513 330.111 275.014L330.859 273.246C331.834 273.677 332.741 273.983 333.579 274.164C334.441 274.323 335.211 274.402 335.891 274.402C337.637 274.402 339.019 273.858 340.039 272.77C341.082 271.659 341.603 269.767 341.603 267.092V264.61C340.765 265.313 339.858 265.902 338.883 266.378C337.909 266.854 336.843 267.092 335.687 267.092C333.715 267.092 332.174 266.491 331.063 265.29C329.975 264.066 329.431 262.457 329.431 260.462V259.204C329.431 257.187 330.055 255.577 331.301 254.376C332.548 253.152 334.248 252.54 336.401 252.54C338.781 252.54 340.583 253.356 341.807 254.988C343.054 256.597 343.677 258.898 343.677 261.89V267.092ZM331.505 260.462C331.505 261.913 331.879 263.057 332.627 263.896C333.398 264.735 334.475 265.154 335.857 265.154C336.923 265.154 337.943 264.905 338.917 264.406C339.915 263.907 340.81 263.273 341.603 262.502V261.89C341.603 256.949 339.869 254.478 336.401 254.478C334.883 254.478 333.681 254.897 332.797 255.736C331.936 256.575 331.505 257.731 331.505 259.204V260.462Z" fill="black"/>
<path d="M394.452 256.008L399.722 252.88H401.932V276H399.79V255.09L395.438 257.64L394.452 256.008Z" fill="black"/>
<path d="M423.942 261.822V267.024C423.942 270.175 423.25 272.521 421.868 274.062C420.508 275.581 418.66 276.34 416.326 276.34C413.991 276.34 412.132 275.581 410.75 274.062C409.39 272.521 408.71 270.175 408.71 267.024V261.822C408.71 258.671 409.401 256.337 410.784 254.818C412.166 253.299 414.014 252.54 416.326 252.54C418.638 252.54 420.485 253.299 421.868 254.818C423.25 256.337 423.942 258.671 423.942 261.822ZM421.698 261.822C421.698 259.17 421.199 257.289 420.202 256.178C419.227 255.045 417.935 254.478 416.326 254.478C414.739 254.478 413.447 255.045 412.45 256.178C411.452 257.289 410.954 259.17 410.954 261.822V267.024C410.954 269.653 411.452 271.546 412.45 272.702C413.447 273.835 414.739 274.402 416.326 274.402C417.935 274.402 419.227 273.835 420.202 272.702C421.199 271.546 421.698 269.653 421.698 267.024V261.822Z" fill="black"/>
<path d="M466.834 256.008L472.104 252.88H474.314V276H472.172V255.09L467.82 257.64L466.834 256.008Z" fill="black"/>
<path d="M478.92 256.008L484.19 252.88H486.4V276H484.258V255.09L479.906 257.64L478.92 256.008Z" fill="black"/>
</svg>
